<?xml version="1.0" encoding="UTF-8" standalone="no"?><!DOCTYPE svg PUBLIC "-//W3C//DTD SVG 1.1//EN" "http://www.w3.org/Graphics/SVG/1.1/DTD/svg11.dtd"><svg width="4000px" height="2500px" version="1.1" xmlns="http://www.w3.org/2000/svg" xmlns:xlink="http://www.w3.org/1999/xlink" xml:space="preserve" xmlns:serif="http://www.serif.com/" style="fill-rule:evenodd;clip-rule:evenodd;stroke-linejoin:round;stroke-miterlimit:2;"><g id="c99"></g><g transform="matrix(2.2689,0,0,2.2689,-356.347,14.0132)"><g id="c43"><g transform="matrix(0.441052,0,0,0.441052,157.793,-6.23997)"><rect x="111.817" y="218.725" width="3805.79" height="2107.56" style="fill:rgb(174,211,240);"/></g><g transform="matrix(1,0,0,1,-1305.22,-1117.13)"><path d="M1512.33,1998.43C1525.62,1999.04 1538.9,2000.19 1551.94,2001.12C1611.36,2005.32 1681.06,2008.52 1737.77,2027.62C1800.37,2048.71 1860.97,2075 1925.25,2091.02C2067.95,2126.58 2239.76,2110.03 2368.84,2038.71C2429.92,2004.96 2486.81,1964.79 2533.95,1913.21C2632.81,1805.06 2649.45,1725.24 2799.53,1670.09C2868.83,1644.62 2946.89,1623.82 3020.95,1620.67C3076.63,1618.31 3135.64,1625.4 3190.88,1634.77L3190.88,2136.9L1512.33,2136.9L1512.33,1998.43ZM3190.88,1368.24C3138.69,1393.37 3081.11,1408.99 3026.39,1405.87C2942.67,1401.1 2894.71,1358.88 2825.79,1319.3C2733.45,1266.28 2636.81,1239.39 2529.5,1250.37C2387.03,1264.95 2275.44,1358.55 2149.52,1415.3C1946.26,1506.91 1705.64,1536.18 1512.33,1446.03L1512.33,1207.36L3190.88,1207.36L3190.88,1368.24Z" style="fill:rgb(195,220,243);"/></g><g transform="matrix(0.441052,0,0,0.441052,157.793,-6.23997)"><rect x="111.817" y="218.725" width="3805.79" height="2107.56" style="fill:none;"/><clipPath id="_clip1"><rect x="111.817" y="218.725" width="3805.79" height="2107.56"/></clipPath><g clip-path="url(#_clip1)"><g transform="matrix(2.26731,0,0,2.26731,-489.276,-163.453)"><g transform="matrix(0.334804,-0.0385161,0.00521326,0.367604,52.9027,82.8369)"><g><g transform="matrix(0.946573,0,0,0.820951,40.438,112.715)"><rect x="756.876" y="629.524" width="944.426" height="1352.11" style="fill:rgb(247,251,255);"/></g><g transform="matrix(0.806836,0,0,1,160.144,0)"><ellipse cx="942.592" cy="748.157" rx="113.536" ry="38.229" style="fill:rgb(142,187,229);fill-opacity:0.42;"/></g><g transform="matrix(0.806836,0,0,1,261.482,0)"><ellipse cx="942.592" cy="748.157" rx="113.536" ry="38.229" style="fill:rgb(142,187,229);fill-opacity:0.42;"/></g><g transform="matrix(1,0,0,1,10.3158,-35.9689)"><path d="M1099.95,862.228C1099.95,860.689 1098.7,859.439 1097.16,859.439L831.286,859.439C829.747,859.439 828.498,860.689 828.498,862.228L828.498,867.804C828.498,869.343 829.747,870.593 831.286,870.593L1097.16,870.593C1098.7,870.593 1099.95,869.343 1099.95,867.804L1099.95,862.228Z" style="fill:rgb(142,187,229);"/></g><g transform="matrix(1,0,0,1,10.3158,5.03589)"><path d="M967.247,862.228C967.247,860.689 965.997,859.439 964.458,859.439L831.286,859.439C829.747,859.439 828.498,860.689 828.498,862.228L828.498,867.804C828.498,869.343 829.747,870.593 831.286,870.593L964.458,870.593C965.997,870.593 967.247,869.343 967.247,867.804L967.247,862.228Z" style="fill:rgb(142,187,229);"/></g><rect x="830.029" y="978.12" width="770.71" height="391.055" style="fill:rgb(217,237,255);"/><g transform="matrix(0.251305,0,0,1,621.438,0)"><rect x="830.029" y="978.12" width="770.71" height="391.055" style="fill:rgb(204,230,255);"/></g><rect x="790.449" y="1029.54" width="832.16" height="6.372" style="fill:rgb(247,251,255);"/><g transform="matrix(1,0,0,1,0,55.3347)"><rect x="790.449" y="1029.54" width="832.16" height="6.372" style="fill:rgb(247,251,255);"/></g><g transform="matrix(1,0,0,1,0,110.669)"><rect x="790.449" y="1029.54" width="832.16" height="6.372" style="fill:rgb(247,251,255);"/></g><g transform="matrix(1,0,0,1,0,166.004)"><rect x="790.449" y="1029.54" width="832.16" height="6.372" style="fill:rgb(247,251,255);"/></g><g transform="matrix(1,0,0,1,0,221.339)"><rect x="790.449" y="1029.54" width="832.16" height="6.372" style="fill:rgb(247,251,255);"/></g><g transform="matrix(1,0,0,1,0,276.673)"><rect x="790.449" y="1029.54" width="832.16" height="6.372" style="fill:rgb(247,251,255);"/></g><rect x="1115.47" y="1450.48" width="479.8" height="10.95" style="fill:rgb(142,187,229);"/><g transform="matrix(0.572103,0,0,1,682.612,35.2227)"><rect x="1115.47" y="1450.48" width="479.8" height="10.95" style="fill:rgb(142,187,229);"/></g></g><g transform="matrix(1,0,0,1,998.066,0)"><g transform="matrix(0.946573,0,0,0.820951,40.438,112.715)"><rect x="756.876" y="629.524" width="944.426" height="1352.11" style="fill:rgb(247,251,255);"/></g><g transform="matrix(1,0,0,1,2.90767,29.9121)"><path d="M1099.95,862.228C1099.95,860.689 1098.7,859.439 1097.16,859.439L831.286,859.439C829.747,859.439 828.498,860.689 828.498,862.228L828.498,867.804C828.498,869.343 829.747,870.593 831.286,870.593L1097.16,870.593C1098.7,870.593 1099.95,869.343 1099.95,867.804L1099.95,862.228Z" style="fill:rgb(142,187,229);"/></g><g transform="matrix(1,0,0,1,2.90767,70.9168)"><path d="M967.247,862.228C967.247,860.689 965.997,859.439 964.458,859.439L831.286,859.439C829.747,859.439 828.498,860.689 828.498,862.228L828.498,867.804C828.498,869.343 829.747,870.593 831.286,870.593L964.458,870.593C965.997,870.593 967.247,869.343 967.247,867.804L967.247,862.228Z" style="fill:rgb(142,187,229);"/></g><g><g transform="matrix(0.459404,0,0,1,448.71,0)"><rect x="830.029" y="978.12" width="770.71" height="391.055" style="fill:rgb(217,237,255);"/></g><g transform="matrix(0.966777,0,0,0.222853,27.7207,529.127)"><rect x="830.029" y="978.12" width="770.71" height="391.055" style="fill:rgb(217,237,255);"/></g><g transform="matrix(0.115451,0,0,1,734.202,0)"><rect x="830.029" y="978.12" width="770.71" height="391.055" style="fill:rgb(204,230,255);"/></g><g transform="matrix(0.242956,0,0,0.222853,628.513,529.127)"><rect x="830.029" y="978.12" width="770.71" height="391.055" style="fill:rgb(204,230,255);"/></g></g><g transform="matrix(1,0,0,1,388.409,0)"><g transform="matrix(0.459404,0,0,1,448.71,0)"><rect x="830.029" y="978.12" width="770.71" height="391.055" style="fill:rgb(217,237,255);"/></g><g transform="matrix(0.115451,0,0,1,734.202,0)"><rect x="830.029" y="978.12" width="770.71" height="391.055" style="fill:rgb(204,230,255);"/></g></g><rect x="790.449" y="1029.54" width="832.16" height="6.372" style="fill:rgb(247,251,255);"/><g transform="matrix(1,0,0,1,0,55.3347)"><rect x="790.449" y="1029.54" width="832.16" height="6.372" style="fill:rgb(247,251,255);"/></g><g transform="matrix(1,0,0,1,0,110.669)"><rect x="790.449" y="1029.54" width="832.16" height="6.372" style="fill:rgb(247,251,255);"/></g><g transform="matrix(1,0,0,1,0,166.004)"><rect x="790.449" y="1029.54" width="832.16" height="6.372" style="fill:rgb(247,251,255);"/></g><g transform="matrix(1,0,0,1,0,221.339)"><rect x="790.449" y="1029.54" width="832.16" height="6.372" style="fill:rgb(247,251,255);"/></g><g transform="matrix(1,0,0,1,0,276.673)"><rect x="790.449" y="1029.54" width="832.16" height="6.372" style="fill:rgb(247,251,255);"/></g><g transform="matrix(-0.58595,0,0,1,1770.97,0)"><rect x="1115.47" y="1450.48" width="479.8" height="10.95" style="fill:rgb(142,187,229);"/></g><g transform="matrix(-0.58595,0,0,1,1770.97,71.1331)"><rect x="1115.47" y="1450.48" width="479.8" height="10.95" style="fill:rgb(142,187,229);"/></g><g transform="matrix(-0.759371,0,0,1,2047.62,35.2227)"><rect x="1115.47" y="1450.48" width="479.8" height="10.95" style="fill:rgb(142,187,229);"/></g><g transform="matrix(-0.335223,0,0,1,1370.99,106.356)"><rect x="1115.47" y="1450.48" width="479.8" height="10.95" style="fill:rgb(142,187,229);"/></g></g><g transform="matrix(1,0,0,1,1987.35,0)"><g transform="matrix(0.946573,0,0,0.820951,40.438,112.715)"><rect x="756.876" y="629.524" width="944.426" height="1352.11" style="fill:rgb(247,251,255);"/></g><g transform="matrix(1,0,0,1,2.90767,29.9121)"><path d="M1099.95,862.228C1099.95,860.689 1098.7,859.439 1097.16,859.439L831.286,859.439C829.747,859.439 828.498,860.689 828.498,862.228L828.498,867.804C828.498,869.343 829.747,870.593 831.286,870.593L1097.16,870.593C1098.7,870.593 1099.95,869.343 1099.95,867.804L1099.95,862.228Z" style="fill:rgb(142,187,229);"/></g><g transform="matrix(1,0,0,1,2.90767,70.9168)"><path d="M967.247,862.228C967.247,860.689 965.997,859.439 964.458,859.439L831.286,859.439C829.747,859.439 828.498,860.689 828.498,862.228L828.498,867.804C828.498,869.343 829.747,870.593 831.286,870.593L964.458,870.593C965.997,870.593 967.247,869.343 967.247,867.804L967.247,862.228Z" style="fill:rgb(142,187,229);"/></g><g><g transform="matrix(0.459404,0,0,0.693817,448.71,299.483)"><rect x="830.029" y="978.12" width="770.71" height="391.055" style="fill:rgb(217,237,255);"/></g><g transform="matrix(0.459404,0,0,0.693817,448.71,646.578)"><rect x="830.029" y="978.12" width="770.71" height="391.055" style="fill:rgb(217,237,255);"/></g><g transform="matrix(0.966777,0,0,0.222853,27.7207,529.127)"><rect x="830.029" y="978.12" width="770.71" height="391.055" style="fill:rgb(217,237,255);"/></g><g transform="matrix(0.115451,0,0,0.693817,734.202,299.483)"><rect x="830.029" y="978.12" width="770.71" height="391.055" style="fill:rgb(204,230,255);"/></g><g transform="matrix(0.115451,0,0,0.693817,734.202,646.578)"><rect x="830.029" y="978.12" width="770.71" height="391.055" style="fill:rgb(204,230,255);"/></g><g transform="matrix(0.242956,0,0,0.222853,628.513,529.127)"><rect x="830.029" y="978.12" width="770.71" height="391.055" style="fill:rgb(204,230,255);"/></g></g><g transform="matrix(1,0,0,0.693817,388.409,299.483)"><g transform="matrix(0.459404,0,0,1,448.71,0)"><rect x="830.029" y="978.12" width="770.71" height="391.055" style="fill:rgb(217,237,255);"/></g><g transform="matrix(0.459404,0,0,1,448.71,500.268)"><rect x="830.029" y="978.12" width="770.71" height="391.055" style="fill:rgb(217,237,255);"/></g><g transform="matrix(0.115451,0,0,1,734.202,0)"><rect x="830.029" y="978.12" width="770.71" height="391.055" style="fill:rgb(204,230,255);"/></g><g transform="matrix(0.115451,0,0,1,734.202,500.268)"><rect x="830.029" y="978.12" width="770.71" height="391.055" style="fill:rgb(204,230,255);"/></g></g><rect x="790.449" y="1029.54" width="832.16" height="6.372" style="fill:rgb(247,251,255);"/><g transform="matrix(1,0,0,1,0,347.095)"><rect x="790.449" y="1029.54" width="832.16" height="6.372" style="fill:rgb(247,251,255);"/></g><g transform="matrix(1,0,0,1,0,55.3347)"><rect x="790.449" y="1029.54" width="832.16" height="6.372" style="fill:rgb(247,251,255);"/></g><g transform="matrix(1,0,0,1,0,402.43)"><rect x="790.449" y="1029.54" width="832.16" height="6.372" style="fill:rgb(247,251,255);"/></g><g transform="matrix(1,0,0,1,0,110.669)"><rect x="790.449" y="1029.54" width="832.16" height="6.372" style="fill:rgb(247,251,255);"/></g><g transform="matrix(1,0,0,1,0,457.764)"><rect x="790.449" y="1029.54" width="832.16" height="6.372" style="fill:rgb(247,251,255);"/></g><g transform="matrix(1,0,0,1,0,166.004)"><rect x="790.449" y="1029.54" width="832.16" height="6.372" style="fill:rgb(247,251,255);"/></g><g transform="matrix(1,0,0,1,0,513.099)"><rect x="790.449" y="1029.54" width="832.16" height="6.372" style="fill:rgb(247,251,255);"/></g></g></g><g transform="matrix(1,0,0,1,58.0027,78.331)"><path d="M109.661,800.595L1939.53,633.024L2017.48,1061.11L154.218,1089.22L109.661,800.595Z" style="fill:rgb(223,236,249);"/></g><g transform="matrix(1.53371,-0.207452,0.517695,0.588882,-2283.06,884.845)"><g transform="matrix(1,0,0,1,-1.90229,1.37203)"><path d="M2387,715.136L2344.66,670.766L2201.57,670.766L2201.57,933.178L2387,933.178L2387,715.136Z" style="fill-opacity:0.1;"/></g><path d="M2387,715.136L2344.66,670.766L2201.57,670.766L2201.57,933.178L2387,933.178L2387,715.136Z" style="fill:rgb(250,253,255);"/><g transform="matrix(-0.682565,0.00394843,0.00602802,0.699685,3113.2,633.752)"><g transform="matrix(0.239375,-1.62918e-19,-3.25837e-19,0.239375,977.479,223.363)"><path d="M1357.14,286.304C1357.14,275.7 1348.53,267.091 1337.92,267.091L543.995,267.091C533.391,267.091 524.782,275.7 524.782,286.304C524.782,296.908 533.391,305.517 543.995,305.517L1337.92,305.517C1348.53,305.517 1357.14,296.908 1357.14,286.304Z" style="fill:white;"/></g><g transform="matrix(0.239375,-1.62918e-19,-3.25837e-19,0.239375,978.002,282.582)"><path d="M1357.14,286.304C1357.14,275.7 1348.53,267.091 1337.92,267.091L543.995,267.091C533.391,267.091 524.782,275.7 524.782,286.304C524.782,296.908 533.391,305.517 543.995,305.517L1337.92,305.517C1348.53,305.517 1357.14,296.908 1357.14,286.304Z" style="fill:white;"/></g><g transform="matrix(0.385494,-2.62367e-19,-5.24733e-19,0.385494,910.984,-48.4089)"><g transform="matrix(0.900109,0,0,0.801474,59.7802,80.9498)"><rect x="506.059" y="487.605" width="80.05" height="407.837" style="fill:rgb(187,227,248);"/></g><g transform="matrix(0.900109,0,0,0.555165,164.727,301.505)"><rect x="506.059" y="487.605" width="80.05" height="407.837" style="fill:rgb(187,227,248);"/></g><g transform="matrix(0.900109,0,0,0.353623,269.674,481.975)"><rect x="506.059" y="487.605" width="80.05" height="407.837" style="fill:rgb(187,227,248);"/></g><g transform="matrix(0.900109,0,0,0.58284,374.621,276.724)"><rect x="506.059" y="487.605" width="80.05" height="407.837" style="fill:rgb(187,227,248);"/></g><g transform="matrix(0.900109,0,-4.99661e-17,0.839717,479.568,46.7055)"><rect x="506.059" y="487.605" width="80.05" height="407.837" style="fill:rgb(187,227,248);"/></g></g><g transform="matrix(0.196904,-1.34013e-19,-2.68025e-19,0.196904,1008.45,118.563)"><circle cx="584.195" cy="1024.83" r="74.953" style="fill:white;"/></g><g transform="matrix(0.196904,-1.34013e-19,-2.68025e-19,0.196904,1008.97,177.782)"><circle cx="584.195" cy="1024.83" r="74.953" style="fill:white;"/></g><g transform="matrix(0.196904,-1.34013e-19,-2.68025e-19,0.196904,1048.92,118.563)"><circle cx="584.195" cy="1024.83" r="74.953" style="fill:white;"/></g><g transform="matrix(0.196904,-1.34013e-19,-2.68025e-19,0.196904,1049.45,177.782)"><circle cx="584.195" cy="1024.83" r="74.953" style="fill:white;"/></g><g transform="matrix(0.196904,-1.34013e-19,-2.68025e-19,0.196904,1089.4,118.563)"><circle cx="584.195" cy="1024.83" r="74.953" style="fill:white;"/></g><g transform="matrix(0.196904,-1.34013e-19,-2.68025e-19,0.196904,1089.92,177.782)"><circle cx="584.195" cy="1024.83" r="74.953" style="fill:white;"/></g><g transform="matrix(0.196904,-1.34013e-19,-2.68025e-19,0.196904,1130.92,118.563)"><circle cx="584.195" cy="1024.83" r="74.953" style="fill:white;"/></g><g transform="matrix(0.196904,-1.34013e-19,-2.68025e-19,0.196904,1131.44,177.782)"><circle cx="584.195" cy="1024.83" r="74.953" style="fill:white;"/></g><g transform="matrix(0.196904,-1.34013e-19,-2.68025e-19,0.196904,1172.44,118.563)"><circle cx="584.195" cy="1024.83" r="74.953" style="fill:white;"/></g><g transform="matrix(0.196904,-1.34013e-19,-2.68025e-19,0.196904,1172.96,177.782)"><circle cx="584.195" cy="1024.83" r="74.953" style="fill:white;"/></g></g><g transform="matrix(1,0,0,1,-2.84164,2.97794)"><rect x="2224.62" y="690.598" width="81.348" height="4.702" style="fill:white;"/></g><g transform="matrix(1,0,0,1,-2.84164,14.0151)"><rect x="2224.62" y="690.598" width="81.348" height="4.702" style="fill:white;"/></g><path d="M2344.66,670.766L2342.93,719.997L2387.79,716.319L2344.66,670.766Z" style="fill:rgb(186,228,255);"/><path d="M2344.66,670.766L2343.54,715.482L2387.79,716.319L2344.66,670.766Z" style="fill:rgb(232,246,255);"/></g><g transform="matrix(1.48186,-0.0387027,0.239285,0.675711,-1896.9,422.761)"><g transform="matrix(1,0,0,1,-1.90229,1.37203)"><path d="M2387,715.136L2344.66,670.766L2201.57,670.766L2201.57,933.178L2387,933.178L2387,715.136Z" style="fill-opacity:0.1;"/></g><path d="M2387,715.136L2344.66,670.766L2201.57,670.766L2201.57,933.178L2387,933.178L2387,715.136Z" style="fill:rgb(250,253,255);"/><g transform="matrix(-0.682565,0.00394843,0.00602802,0.699685,3113.2,633.752)"><g transform="matrix(0.239375,-1.62918e-19,-3.25837e-19,0.239375,977.479,223.363)"><path d="M1357.14,286.304C1357.14,275.7 1348.53,267.091 1337.92,267.091L543.995,267.091C533.391,267.091 524.782,275.7 524.782,286.304C524.782,296.908 533.391,305.517 543.995,305.517L1337.92,305.517C1348.53,305.517 1357.14,296.908 1357.14,286.304Z" style="fill:white;"/></g><g transform="matrix(0.239375,-1.62918e-19,-3.25837e-19,0.239375,978.002,282.582)"><path d="M1357.14,286.304C1357.14,275.7 1348.53,267.091 1337.92,267.091L543.995,267.091C533.391,267.091 524.782,275.7 524.782,286.304C524.782,296.908 533.391,305.517 543.995,305.517L1337.92,305.517C1348.53,305.517 1357.14,296.908 1357.14,286.304Z" style="fill:white;"/></g><g transform="matrix(0.385494,-2.62367e-19,-5.24733e-19,0.385494,910.984,-48.4089)"><g transform="matrix(0.900109,0,0,0.801474,59.7802,80.9498)"><rect x="506.059" y="487.605" width="80.05" height="407.837" style="fill:rgb(187,227,248);"/></g><g transform="matrix(0.900109,0,0,0.555165,164.727,301.505)"><rect x="506.059" y="487.605" width="80.05" height="407.837" style="fill:rgb(187,227,248);"/></g><g transform="matrix(0.900109,0,0,0.353623,269.674,481.975)"><rect x="506.059" y="487.605" width="80.05" height="407.837" style="fill:rgb(187,227,248);"/></g><g transform="matrix(0.900109,0,0,0.58284,374.621,276.724)"><rect x="506.059" y="487.605" width="80.05" height="407.837" style="fill:rgb(187,227,248);"/></g><g transform="matrix(0.900109,0,0,0.304774,479.568,525.716)"><rect x="506.059" y="487.605" width="80.05" height="407.837" style="fill:rgb(187,227,248);"/></g></g><g transform="matrix(0.196904,-1.34013e-19,-2.68025e-19,0.196904,1008.45,118.563)"><circle cx="584.195" cy="1024.83" r="74.953" style="fill:white;"/></g><g transform="matrix(0.196904,-1.34013e-19,-2.68025e-19,0.196904,1008.97,177.782)"><circle cx="584.195" cy="1024.83" r="74.953" style="fill:white;"/></g><g transform="matrix(0.196904,-1.34013e-19,-2.68025e-19,0.196904,1048.92,118.563)"><circle cx="584.195" cy="1024.83" r="74.953" style="fill:white;"/></g><g transform="matrix(0.196904,-1.34013e-19,-2.68025e-19,0.196904,1049.45,177.782)"><circle cx="584.195" cy="1024.83" r="74.953" style="fill:white;"/></g><g transform="matrix(0.196904,-1.34013e-19,-2.68025e-19,0.196904,1089.4,118.563)"><circle cx="584.195" cy="1024.83" r="74.953" style="fill:white;"/></g><g transform="matrix(0.196904,-1.34013e-19,-2.68025e-19,0.196904,1089.92,177.782)"><circle cx="584.195" cy="1024.83" r="74.953" style="fill:white;"/></g><g transform="matrix(0.196904,-1.34013e-19,-2.68025e-19,0.196904,1130.92,118.563)"><circle cx="584.195" cy="1024.83" r="74.953" style="fill:white;"/></g><g transform="matrix(0.196904,-1.34013e-19,-2.68025e-19,0.196904,1131.44,177.782)"><circle cx="584.195" cy="1024.83" r="74.953" style="fill:white;"/></g><g transform="matrix(0.196904,-1.34013e-19,-2.68025e-19,0.196904,1172.44,118.563)"><circle cx="584.195" cy="1024.83" r="74.953" style="fill:white;"/></g><g transform="matrix(0.196904,-1.34013e-19,-2.68025e-19,0.196904,1172.96,177.782)"><circle cx="584.195" cy="1024.83" r="74.953" style="fill:white;"/></g></g><g transform="matrix(1,0,0,1,-2.84164,2.97794)"><rect x="2224.62" y="690.598" width="81.348" height="4.702" style="fill:white;"/></g><g transform="matrix(1,0,0,1,-2.84164,14.0151)"><rect x="2224.62" y="690.598" width="81.348" height="4.702" style="fill:white;"/></g><path d="M2344.66,670.766L2342.93,719.997L2387.79,716.319L2344.66,670.766Z" style="fill:rgb(186,228,255);"/><path d="M2344.66,670.766L2343.54,715.482L2387.79,716.319L2344.66,670.766Z" style="fill:rgb(232,246,255);"/></g><g transform="matrix(1,0,0,1,58.0027,78.331)"><path d="M165.544,814.634L1957.73,646.467L1961.65,627.86L150.67,793.042L165.544,814.634Z" style="fill:white;"/></g><g transform="matrix(1,0,0,1,-1758.87,75.9092)"><path d="M3486.52,726.147L3724.12,901.844L3719.94,806.212L3486.52,726.147Z" style="fill-opacity:0.21;"/></g><g transform="matrix(1,0,0,1,-1758.87,75.9092)"><path d="M3486.52,726.147L3797.63,1059.55L3719.94,806.212L3486.52,726.147Z" style="fill:url(#_Linear2);"/></g><g transform="matrix(1,0,0,1,-1742.72,-67.9022)"><path d="M3479.2,352.811L3533.3,339.945L3556.49,400.806L3479.2,352.811Z" style="fill:rgb(204,167,10);"/><path d="M3504.66,392.343L3510.83,278.888L3520.44,277.667L3526.59,281.445L3531.73,276.246L3540.56,275.122L3549.76,276.456L3559.49,274.765L3562.78,270.688L3568.08,269.266L3572.94,279.118L3580.13,278.064L3583.4,273.604L3590.68,272.72L3595.58,268.13L3603.75,267.08L3702.92,294.653L3691.77,344.774L3699.78,696.033L3504.66,392.343Z" style="fill:rgb(232,246,255);"/><path d="M3506.04,373.062L3506.64,354.129L3622.17,407.762L3669.57,590.35C3669.57,590.35 3505.6,372.738 3506.04,373.062Z" style="fill:rgb(164,219,255);"/><path d="M3521.33,283.748L3626.87,321.666L3661.05,585.03L3635.19,320.387L3521.31,277.776L3521.33,283.748Z" style="fill:rgb(164,219,255);"/><path d="M3550.08,278.712L3645.6,313.669L3661.88,536.32L3649.85,310.941L3558.86,277.528L3550.08,278.712Z" style="fill:rgb(164,219,255);"/><path d="M3584.2,274.375L3665.28,308.43L3670.6,493.311L3670.44,306.136L3590.77,273.067L3584.2,274.375Z" style="fill:rgb(164,219,255);"/><path d="M3573.18,279.32L3655.55,310.285L3659.22,353.314L3661.89,309.321L3581.06,277.807L3573.18,279.32Z" style="fill:rgb(164,219,255);"/><path d="M3659.53,380.751L3665.65,576.697L3674.16,624.923L3659.53,380.751Z" style="fill:rgb(164,219,255);"/><path d="M3675.81,348.338L3686.62,661.949L3696.77,672.258L3675.81,348.338Z" style="fill:rgb(164,219,255);"/><path d="M3586.68,317.068C3586.68,317.068 3610.51,320.793 3628.45,359.697C3628.45,359.697 3606.57,348.539 3585.81,360.54L3586.68,317.068Z" style="fill:rgb(164,219,255);"/><g transform="matrix(0.45158,0.195182,0.000829706,0.760618,1975.21,-588.893)"><path d="M3826.02,702.198L3626.47,382.843L3330.42,382.843L3307.64,399.316L3330.42,1054.02L3826.02,1054.02L3826.02,702.198Z" style="fill:rgb(204,167,10);"/></g><g transform="matrix(0.45158,0.195182,0.000829706,0.760618,1964.89,-580.898)"><path d="M3826.02,702.198L3626.47,382.843L3330.42,382.843L3330.42,1054.02L3826.02,1054.02L3826.02,702.198Z" style="fill:rgb(247,218,97);"/><clipPath id="_clip3"><path d="M3826.02,702.198L3626.47,382.843L3330.42,382.843L3330.42,1054.02L3826.02,1054.02L3826.02,702.198Z"/></clipPath><g clip-path="url(#_clip3)"><g transform="matrix(2.02099,0.0187567,0.0132792,1.44137,-3675.46,-310.136)"><rect x="3557.18" y="811.299" width="110.187" height="75.444" style="fill:rgb(252,243,203);"/></g><g transform="matrix(2.02099,0.0187567,-0.00277648,-0.301368,-3662.41,1091.48)"><rect x="3557.18" y="811.299" width="110.187" height="75.444" style="fill:rgb(252,243,203);"/></g></g></g></g><g transform="matrix(1,0,0,1,0.0491239,-5.88057)"><g transform="matrix(-1.10365,0.0941312,0.0941312,1.10365,2693.92,-1076.97)"><g transform="matrix(1,0,0,1,-11.5637,0)"><path d="M1564.92,1658.83L1776.99,1658.83C1776.99,1658.83 1781.34,1655.22 1785.76,1651.56C1791.02,1647.2 1792.27,1639.62 1788.69,1633.8C1776.06,1613.28 1748.69,1568.8 1748.69,1568.8L1564.77,1571.57C1564.77,1571.57 1588.57,1612.54 1599.07,1630.61C1600.31,1632.74 1600.58,1635.3 1599.81,1637.64C1599.04,1639.99 1597.3,1641.89 1595.04,1642.87C1584.41,1647.49 1568.05,1654.6 1568.05,1654.6L1564.92,1658.83Z" style="fill:rgb(64,103,177);"/></g><g transform="matrix(1,0,0,1,-201.253,0)"><path d="M1769.71,1597.82L1977.22,1637.78C1977.06,1633.78 1975.9,1629.77 1973.67,1626.15C1960,1603.93 1938.38,1568.8 1938.38,1568.8L1754.46,1571.57L1769.71,1597.82Z" style="fill:rgb(51,82,141);"/></g><g transform="matrix(1,0,0,1,-201.253,0)"><path d="M1932.25,1572.42L1969.52,1635.49C1969.67,1635.75 1969.84,1636 1970.03,1636.23C1970.03,1636.23 1972.07,1638.9 1973.08,1642.4C1973.58,1644.12 1973.92,1646.12 1973.06,1648C1972.01,1650.3 1969.44,1652.07 1965.04,1653.55C1965.03,1653.55 1761.06,1653.63 1761.06,1653.63C1757.13,1653.63 1753.94,1656.82 1753.94,1660.76C1753.94,1664.69 1757.13,1667.88 1761.07,1667.88L1966.15,1667.8C1966.86,1667.8 1967.57,1667.7 1968.25,1667.49C1978.67,1664.28 1983.67,1659.06 1986.02,1653.93C1988.4,1648.72 1988.15,1643.19 1986.77,1638.43C1985.29,1633.32 1982.54,1629.23 1981.61,1627.93C1981.61,1627.94 1944.52,1565.17 1944.52,1565.17C1942.52,1561.78 1938.14,1560.66 1934.76,1562.66C1931.37,1564.66 1930.25,1569.04 1932.25,1572.42Z" style="fill:rgb(45,69,132);"/></g><g transform="matrix(1.03989,0,-0.125,1,115.084,3.04866)"><g transform="matrix(0.428201,0,6.07128e-18,0.440071,567.286,881.916)"><path d="M3395.32,576.444C3395.32,553.732 3351.63,511.716 3328.92,511.716L1808.82,536.438C1786.11,536.438 1757.32,565.11 1757.32,587.822L1753.03,1560.63C1753.03,1583.34 1799.37,1615.1 1822.09,1615.1L3326.76,1624.11C3336.7,1624.11 3350.34,1623.43 3366.13,1615.41C3383.11,1606.8 3393.85,1593.32 3393.85,1580.54L3395.32,576.444Z" style="fill:rgb(45,69,132);"/></g><g transform="matrix(0.428027,-1.22416e-17,1.18801e-17,0.437074,553.693,871.386)"><path d="M3395.32,576.444C3395.32,553.732 3376.88,535.292 3354.17,535.292L1822.09,535.292C1799.37,535.292 1780.93,553.732 1780.93,576.444L1780.93,1573.94C1780.93,1596.66 1799.37,1615.1 1822.09,1615.1L3354.17,1615.1C3376.88,1615.1 3395.32,1596.66 3395.32,1573.94L3395.32,576.444Z" style="fill:rgb(232,246,255);"/></g><g transform="matrix(0.636639,0,0.0795797,0.662037,557.761,322.57)"><path d="M1817.26,1182.38L2100.9,1182.38C2116.17,1182.38 2127.03,1194.66 2125.14,1209.79L2116.52,1278.72C2091.58,1299.41 2066.77,1320.27 2042.1,1341.25C1827.07,1524.18 1623.94,1717.73 1397.79,1887.51C1391.64,1892.13 1385.43,1896.88 1379.17,1901.74L980.924,1901.74C965.654,1901.74 954.792,1889.46 956.684,1874.33L961.77,1833.64C1023.71,1785.76 1081.1,1736.98 1104.3,1718.6C1337.36,1533.91 1569.82,1347.41 1817.26,1182.38ZM1639.66,1182.38C1580.39,1216.46 1523.75,1255.19 1465.21,1290.44C1304.72,1387.08 1145.82,1487.37 991.728,1593.97L1010.96,1440.13C1013.82,1437.88 1016.68,1435.64 1019.55,1433.4C1073.82,1391 1129.4,1350.23 1185,1309.62C1226.51,1279.3 1269.3,1250.3 1311.39,1220.75C1329.99,1207.69 1348.76,1194.96 1367.63,1182.38L1639.66,1182.38Z" style="fill:white;fill-opacity:0.16;"/></g><g transform="matrix(0.532921,-2.05195e-17,-1.22416e-17,0.549134,178.298,694.495)"><g transform="matrix(-1.24206,-0.00410031,-0.00856095,1.11301,6097.08,154.101)"><rect x="2499.58" y="579.39" width="656.293" height="422.589" style="fill:rgb(238,115,164);fill-opacity:0.21;"/></g><g transform="matrix(-1.61182,-0.00532098,-0.0125012,1.62528,6513.87,-163.925)"><path d="M2205.64,882.682C2264.73,874.674 2326.51,838.6 2385.91,831.87C2446.41,825.017 2490.7,833.675 2550.23,844.489C2563.41,846.884 2590.91,858.992 2604.15,861.233C2626.73,865.057 2663.03,877.737 2688.96,880.922L2688.96,882.682L2205.64,882.682Z" style="fill:rgb(236,97,152);fill-opacity:0.96;"/></g><g transform="matrix(-1.61182,-0.00532098,-0.0125012,1.62528,6513.87,-163.925)"><path d="M2187.1,882.682C2226.95,868.614 2255.88,832.866 2282.12,801.054C2315.27,760.884 2353.77,722.059 2405.7,708.252C2422.54,703.775 2440.59,701.402 2457.99,702.526C2531.96,707.31 2603.12,826.119 2627.65,843.947C2641.77,854.209 2662.35,870.295 2682.75,882.682L2187.1,882.682Z" style="fill:rgb(236,97,152);fill-opacity:0.52;"/></g><g transform="matrix(-1.61182,-0.00532098,-0.0125012,1.62528,6513.87,-163.925)"><path d="M2186.91,882.682C2207.56,866.865 2227.64,832.139 2238.74,816.894C2295.16,739.37 2356.51,609.175 2474.28,626.403C2498.44,629.937 2519.76,644.334 2537.71,659.914C2581.11,697.574 2607.87,751.346 2631.81,802.852C2639.69,819.82 2648.08,838.395 2658.89,853.737C2667.12,865.411 2677.39,874.688 2688.96,882.195L2688.96,882.682L2186.91,882.682Z" style="fill:rgb(236,97,152);fill-opacity:0.21;"/></g><g transform="matrix(-1.61182,-0.00532098,-0.0122563,1.59344,6513.73,-145.779)"><path d="M2167.39,903.158L2167.39,569.931L2161.63,569.931L2161.63,909.335L2167.39,909.335L2167.39,908.925L2707.1,908.925L2707.1,903.158L2167.39,903.158Z" style="fill:rgb(236,97,152);"/></g><g transform="matrix(-1.61182,-0.00532098,-0.0125012,1.62528,6513.87,-163.925)"><path d="M2154.61,868.047L2148.93,868.047L2148.93,871.503L2154.61,871.503L2154.61,868.047ZM2154.61,850.614L2141.34,850.614L2141.34,854.07L2154.61,854.07L2154.61,850.614ZM2154.61,833.18L2148.62,833.18L2148.62,836.636L2154.61,836.636L2154.61,833.18ZM2154.61,815.747L2148.62,815.747L2148.62,819.202L2154.61,819.202L2154.61,815.747ZM2154.61,798.313L2148.62,798.313L2148.62,801.769L2154.61,801.769L2154.61,798.313ZM2154.61,780.88L2148.62,780.88L2148.62,784.335L2154.61,784.335L2154.61,780.88ZM2154.61,763.446L2141.34,763.446L2141.34,766.902L2154.61,766.902L2154.61,763.446ZM2154.61,746.012L2148.62,746.012L2148.62,749.468L2154.61,749.468L2154.61,746.012ZM2154.61,728.579L2148.62,728.579L2148.62,732.035L2154.61,732.035L2154.61,728.579ZM2154.61,711.145L2148.62,711.145L2148.62,714.601L2154.61,714.601L2154.61,711.145ZM2154.61,693.712L2148.62,693.712L2148.62,697.168L2154.61,697.168L2154.61,693.712ZM2154.61,676.278L2141.34,676.278L2141.34,679.734L2154.61,679.734L2154.61,676.278ZM2154.61,658.845L2148.62,658.845L2148.62,662.3L2154.61,662.3L2154.61,658.845ZM2154.61,641.411L2148.62,641.411L2148.62,644.867L2154.61,644.867L2154.61,641.411ZM2154.61,623.978L2148.62,623.978L2148.62,627.433L2154.61,627.433L2154.61,623.978ZM2154.61,606.544L2148.62,606.544L2148.62,610L2154.61,610L2154.61,606.544ZM2154.61,589.11L2141.34,589.11L2141.34,592.566L2154.61,592.566L2154.61,589.11Z" style="fill:rgb(236,97,152);"/></g><g transform="matrix(-1.61182,-0.00532098,-0.0125012,1.62528,6513.87,-163.925)"><path d="M2445.82,921.783L2449.39,921.783L2449.39,908.516L2445.82,908.516L2445.82,921.783ZM2533.1,908.516L2533.1,921.783L2536.55,921.783L2536.55,908.516L2533.1,908.516ZM2620.26,908.516L2620.26,921.783L2623.72,921.783L2623.72,908.516L2620.26,908.516ZM2184.32,908.516L2184.32,921.783L2187.78,921.783L2187.78,908.516L2184.32,908.516ZM2271.49,908.516L2271.49,921.783L2274.94,921.783L2274.94,908.516L2271.49,908.516ZM2358.66,908.516L2358.66,921.783L2362.11,921.783L2362.11,908.516L2358.66,908.516ZM2341.22,908.516L2341.22,914.504L2344.68,914.504L2344.68,908.516L2341.22,908.516ZM2323.79,908.516L2323.79,914.504L2327.24,914.504L2327.24,908.516L2323.79,908.516ZM2306.36,908.516L2306.36,914.504L2309.81,914.504L2309.81,908.516L2306.36,908.516ZM2288.92,908.516L2288.92,914.504L2292.38,914.504L2292.38,908.516L2288.92,908.516ZM2376.09,908.516L2376.09,914.504L2379.55,914.504L2379.55,908.516L2376.09,908.516ZM2254.05,908.516L2254.05,914.504L2257.51,914.504L2257.51,908.516L2254.05,908.516ZM2236.62,908.516L2236.62,914.504L2240.08,914.504L2240.08,908.516L2236.62,908.516ZM2219.19,908.516L2219.19,914.504L2222.64,914.504L2222.64,908.516L2219.19,908.516ZM2201.75,908.516L2201.75,914.504L2205.21,914.504L2205.21,908.516L2201.75,908.516ZM2393.52,908.516L2393.52,914.504L2396.98,914.504L2396.98,908.516L2393.52,908.516ZM2672.57,908.516L2672.57,914.504L2676.02,914.504L2676.02,908.516L2672.57,908.516ZM2655.13,908.516L2655.13,914.504L2658.59,914.504L2658.59,908.516L2655.13,908.516ZM2637.7,908.516L2637.7,914.504L2641.15,914.504L2641.15,908.516L2637.7,908.516ZM2410.96,908.516L2410.96,914.504L2414.41,914.504L2414.41,908.516L2410.96,908.516ZM2602.83,908.516L2602.83,914.504L2606.29,914.504L2606.29,908.516L2602.83,908.516ZM2585.4,908.516L2585.4,914.504L2588.85,914.504L2588.85,908.516L2585.4,908.516ZM2567.96,908.516L2567.96,914.504L2571.42,914.504L2571.42,908.516L2567.96,908.516ZM2550.53,908.516L2550.53,914.504L2553.99,914.504L2553.99,908.516L2550.53,908.516ZM2428.39,908.516L2428.39,914.504L2431.85,914.504L2431.85,908.516L2428.39,908.516ZM2515.66,908.516L2515.66,914.504L2519.12,914.504L2519.12,908.516L2515.66,908.516ZM2498.23,908.516L2498.23,914.504L2501.69,914.504L2501.69,908.516L2498.23,908.516ZM2480.8,908.516L2480.8,914.504L2484.25,914.504L2484.25,908.516L2480.8,908.516ZM2466.82,908.516L2463.26,908.516L2463.26,914.194L2463.36,914.194L2463.36,914.504L2466.82,914.504L2466.82,908.516Z" style="fill:rgb(236,97,152);"/></g></g><g transform="matrix(0.532921,-2.05195e-17,-1.22416e-17,0.549134,167.82,683.428)"><g transform="matrix(-1.5527,-0.00512579,-0.0117827,1.53187,7063.73,-105.113)"><rect x="2499.58" y="579.39" width="656.293" height="422.589" style="fill:url(#_Linear4);"/></g><g transform="matrix(-1.71333,-0.00565606,-0.0125012,1.62528,7432.69,-232.364)"><path d="M3155.88,579.39L2506.57,571.119L2499.58,579.39L2499.58,1001.98L3155.88,1001.98L3161.99,993.624L3155.88,579.39Z" style="fill:rgb(244,171,200);"/></g><g transform="matrix(-1.71333,-0.00565606,-0.0125012,1.62528,7421.54,-245.637)"><rect x="2499.58" y="579.39" width="656.293" height="422.589" style="fill:white;"/></g><g transform="matrix(-1.71333,-0.00565606,-0.0125012,1.62528,7421.54,-245.637)"><rect x="2499.58" y="579.39" width="656.293" height="422.589" style="fill:rgb(236,97,152);fill-opacity:0.21;"/></g><g transform="matrix(-0.807436,0.0702484,0.171626,0.823635,3996.93,101.955)"><path d="M1304.1,700.02C1259.03,712.558 1241.93,823.714 1241.52,861.589C1240.44,959.322 1346.49,1314.92 1431.78,1361.75C1507.23,1403.19 1658.78,1325.61 1737.33,1312.97C1854.7,1294.09 1980.92,1287.85 2099.73,1292.18C2130.81,1293.31 2161.14,1301.78 2192.52,1299.41C2267.07,1293.78 2339.34,1285.17 2412.96,1272.55C2464.01,1263.79 2518.63,1271.65 2568.14,1255.33C2690.79,1214.88 2754.97,1165.8 2760.82,1035.56C2761.59,1018.47 2766.28,996.959 2760.01,980.401C2739.11,925.265 2654.78,843.672 2613.55,799.849C2571.16,754.787 2534.73,702.175 2480.61,670.264C2373.14,606.906 2259.76,620.105 2140.32,615.127C1951.46,607.254 1760.35,618.313 1577.69,672.296" style="fill:none;"/><clipPath id="_clip5"><path d="M1304.1,700.02C1259.03,712.558 1241.93,823.714 1241.52,861.589C1240.44,959.322 1346.49,1314.92 1431.78,1361.75C1507.23,1403.19 1658.78,1325.61 1737.33,1312.97C1854.7,1294.09 1980.92,1287.85 2099.73,1292.18C2130.81,1293.31 2161.14,1301.78 2192.52,1299.41C2267.07,1293.78 2339.34,1285.17 2412.96,1272.55C2464.01,1263.79 2518.63,1271.65 2568.14,1255.33C2690.79,1214.88 2754.97,1165.8 2760.82,1035.56C2761.59,1018.47 2766.28,996.959 2760.01,980.401C2739.11,925.265 2654.78,843.672 2613.55,799.849C2571.16,754.787 2534.73,702.175 2480.61,670.264C2373.14,606.906 2259.76,620.105 2140.32,615.127C1951.46,607.254 1760.35,618.313 1577.69,672.296"/></clipPath><g clip-path="url(#_clip5)"><g id="Photo.png" transform="matrix(1.92615,-0.157935,0.435069,1.90343,1205.55,542.104)"><rect x="0" y="0" width="695" height="396" style="fill:rgb(128,128,128);fill-opacity:0;"/></g></g></g></g><g transform="matrix(0.443098,1.22416e-17,5.68596e-20,0.441049,526.989,868.203)"><path d="M3347.66,1449.42L3347.66,1573.94C3347.66,1596.66 3329.76,1615.1 3307.72,1615.1L1820.87,1615.1C1798.83,1615.1 1780.93,1596.66 1780.93,1573.94L1780.93,1449.42L3347.66,1449.42Z" style="fill:rgb(64,103,177);"/></g><g transform="matrix(0.349283,0,0,0.349283,757.739,1006.19)"><g transform="matrix(-0.879081,-1.07656e-16,1.22465e-16,-1,5579.11,3064.58)"><circle cx="2498.44" cy="1535.48" r="50.538" style="fill:rgb(45,69,132);"/></g></g></g></g><g transform="matrix(-1.09602,0.160136,0.32883,1.07137,3484.1,-1139.04)"><g transform="matrix(1,0,-1.158,1,2036.52,10.9009)"><path d="M2278.07,1771.05C2278.07,1767.87 2285.63,1740.78 2285.63,1740.78L2262.87,1679.76C2262.87,1679.76 1927.93,1683.48 1905.88,1683.48C1905,1683.48 1904.52,1683.79 1904.52,1684.36L1904.52,1765.52C1904.52,1766.51 1905.97,1768.12 1908.16,1769.55C1910.35,1770.98 1912.82,1771.93 1914.34,1771.93L2276.71,1771.93C2277.59,1771.93 2278.07,1771.62 2278.07,1771.05Z" style="fill-opacity:0.2;"/></g><g transform="matrix(1,0,-1.158,1,2032.42,2.10808)"><path d="M2278.07,1689.89C2278.07,1688.9 2276.62,1687.29 2274.43,1685.86C2272.24,1684.42 2269.78,1683.48 2268.25,1683.48L1905.88,1683.48C1905,1683.48 1904.52,1683.79 1904.52,1684.36L1904.52,1765.52C1904.52,1766.51 1905.97,1768.12 1908.16,1769.55C1910.35,1770.98 1912.82,1771.93 1914.34,1771.93L2276.71,1771.93C2277.59,1771.93 2278.07,1771.62 2278.07,1771.05L2278.07,1689.89Z" style="fill:rgb(64,103,177);fill-opacity:0.96;"/></g><path d="M2353.86,1686.73C2353.8,1687.69 2353.36,1688.61 2352.61,1689.26C2330.72,1708.16 2267.46,1762.79 2258.63,1770.41C2257.97,1770.99 2257.12,1771.3 2256.24,1771.3L1893.87,1771.3C1892.85,1771.3 1891.9,1770.87 1891.22,1770.16C1891.19,1770.66 1891.26,1771.17 1891.44,1771.66C1891.98,1773.09 1893.34,1774.04 1894.87,1774.04L2257.24,1774.04C2258.12,1774.04 2258.96,1773.73 2259.63,1773.15C2268.46,1765.53 2331.71,1710.9 2353.6,1692C2354.75,1691 2355.17,1689.39 2354.64,1687.96C2354.46,1687.49 2354.2,1687.08 2353.86,1686.73Z" style="fill:rgb(13,97,152);fill-opacity:0.96;"/><g transform="matrix(1,0,0,1,92.3917,1.7561)"><path d="M2187.01,1685.58L2088.8,1685.58C2074.17,1692.56 2060.7,1701.91 2049.45,1712.96L2045.44,1715.09C2040.47,1716.86 2037.4,1723.58 2035.43,1728.15C2032.97,1733.85 2029.17,1741.37 2030.97,1747.83C2033.09,1755.43 2043.49,1760.53 2050.24,1762.92C2089.25,1776.74 2136.39,1756.38 2166.07,1730.86C2176.31,1722.05 2190.87,1709.1 2189.45,1693.94C2189.15,1690.68 2188.29,1687.92 2187.01,1685.58Z" style="fill:rgb(55,84,140);fill-opacity:0.96;"/></g><g transform="matrix(1,0,0,1,87.9002,-5.06192)"><path d="M2031.13,1736.46C2019.93,1725.08 2036.45,1702.48 2047.01,1693.15C2066.64,1675.83 2091.34,1666.69 2116.51,1662.52C2128.43,1660.54 2144.05,1660.73 2155.95,1663.63C2162.19,1665.15 2167.63,1667.63 2173.21,1670.77C2176.4,1672.56 2178.88,1675.18 2181.74,1677.44C2192.82,1686.18 2184.1,1704.8 2181.7,1707.57C2173.2,1717.39 2163.35,1726.88 2151.91,1733.34C2124.53,1748.79 2096.31,1754.72 2064.89,1751.44C2052.85,1750.19 2042.97,1748.49 2031.13,1736.46Z" style="fill:rgb(208,237,255);"/><path d="M2132.25,1661.22C2127.3,1666.11 2119.23,1674.41 2127.39,1679.63C2128.76,1680.51 2130.42,1681.17 2131.93,1681.72C2133.99,1682.45 2136.26,1682.89 2138.43,1683.05C2148.88,1683.83 2160.38,1682.19 2170.64,1680.4C2174.24,1679.77 2178.07,1678.28 2181.85,1677.52C2192.76,1686.31 2184.09,1704.81 2181.7,1707.57C2173.2,1717.39 2163.35,1726.88 2151.91,1733.34C2124.53,1748.79 2096.31,1754.72 2064.89,1751.44C2052.85,1750.19 2042.97,1748.49 2031.13,1736.46C2029.34,1734.65 2028.26,1732.55 2027.75,1730.26C2028.1,1730.5 2028.44,1730.74 2028.8,1730.97C2036.56,1736.06 2046.16,1738.86 2055.39,1739.22C2072.07,1739.86 2089.03,1736.96 2104.92,1732.19C2120.97,1727.38 2138.73,1723.14 2152.27,1712.61C2157.89,1708.24 2163.67,1701.23 2156.47,1695.65C2155.39,1694.81 2153.8,1694.4 2152.53,1693.97C2149.23,1692.85 2145.13,1692.57 2141.68,1692.05C2135.71,1691.14 2129.34,1688.85 2123.89,1686.34C2120.46,1684.76 2115.24,1682.5 2113.24,1679.02C2111.76,1676.45 2114.01,1674.25 2115.66,1672.61C2120.12,1668.17 2125.86,1664.38 2131.4,1661.23L2131.73,1661.23L2132.25,1661.22Z" style="fill:rgb(165,221,255);"/><path d="M2078.18,1676.85C2072.97,1678.46 2068.38,1681.51 2063.68,1684.17C2056.21,1688.39 2048.88,1693.1 2043.46,1699.91C2039.27,1705.18 2034.82,1715.16 2044.95,1715.88C2046.38,1715.98 2048.06,1716.05 2049.47,1715.79C2053.64,1715.05 2057.56,1712.56 2061.21,1710.55C2071.64,1704.79 2081.64,1697.09 2089.61,1688.18C2091.5,1686.07 2093.53,1683.29 2094.24,1680.49C2096,1673.47 2085.47,1673.74 2081.9,1675.05" style="fill:white;fill-opacity:0.38;"/><path d="M2137.26,1665.55C2134.11,1665.06 2130.72,1667.33 2129.45,1670.24C2128.53,1672.35 2129.08,1675 2131.72,1675.1C2135.6,1675.24 2140.48,1672.87 2143.47,1670.51C2146.3,1668.29 2143.56,1666.05 2140.88,1665.61C2139.66,1665.4 2138.44,1665.29 2137.21,1665.16" style="fill:white;fill-opacity:0.38;"/><path d="M2112.67,1667.32C2109.55,1667.47 2106.96,1672 2106.54,1674.78C2106.3,1676.4 2107.62,1678.46 2109.45,1678.16C2109.84,1678.09 2109.55,1674.18 2109.65,1673.57C2109.8,1672.73 2110.32,1670.88 2110.95,1670.24C2111.56,1669.62 2112.72,1669.13 2113.08,1668.31" style="fill:rgb(165,221,255);"/></g></g><g transform="matrix(1,0,0,1,57.9536,84.2116)"><path d="M587.223,874.957C587.82,875.139 588.447,875.202 589.069,875.141C613.721,872.745 1115.16,823.998 1220.27,813.781C1222.03,813.61 1223.42,812.211 1223.58,810.448C1223.75,808.685 1222.63,807.055 1220.93,806.564C1211.28,803.782 1200.94,800.801 1198.25,800.024C1197.8,799.896 1197.34,799.852 1196.88,799.896C1175.8,801.892 682.921,848.567 567.793,859.469C565.535,859.683 563.744,861.462 563.516,863.718C563.287,865.974 564.685,868.077 566.854,868.739C575.745,871.453 584.454,874.112 587.223,874.957Z" style="fill-opacity:0.23;"/></g><g transform="matrix(-1.10365,0.0941312,0.0941312,1.10365,2693.92,-1076.97)"><g transform="matrix(0.716442,-1.79452e-17,-1.74375e-17,0.763813,641.896,396.499)"><path d="M1630.67,1814.86L777.507,1810.02C771.3,1810.01 769.902,1799.37 773.193,1797.31L933.088,1697.1C936.346,1695.06 943.97,1693.41 950.117,1693.41L1800.4,1694.07C1806.55,1694.07 1806.33,1705.21 1803.07,1707.25L1647.86,1811.14C1644.57,1813.2 1636.87,1814.86 1630.67,1814.86Z" style="fill-opacity:0.17;"/><path d="M1671.95,1853.8L777.507,1810.02C771.3,1810.01 769.902,1799.37 773.193,1797.31L933.088,1697.1C936.346,1695.06 943.97,1693.41 950.117,1693.41L1800.4,1694.07C1806.55,1694.07 1828.04,1735.08 1824.78,1737.12L1689.14,1850.08C1685.85,1852.14 1678.15,1853.8 1671.95,1853.8Z" style="fill:url(#_Linear6);"/></g><g transform="matrix(0.716442,-1.79452e-17,-1.74375e-17,0.763813,630.233,390.194)"><path d="M1630.67,1814.86L777.507,1810.02C771.3,1810.01 769.902,1799.37 773.193,1797.31L933.088,1697.1C936.346,1695.06 943.97,1693.41 950.117,1693.41L1800.4,1694.07C1806.55,1694.07 1806.33,1705.21 1803.07,1707.25L1647.86,1811.14C1644.57,1813.2 1636.87,1814.86 1630.67,1814.86Z" style="fill:rgb(45,69,132);"/></g><g transform="matrix(0.716442,-1.79452e-17,-1.74375e-17,0.763813,630.233,390.194)"><path d="M1628.54,1801.7L778.472,1801.05C772.265,1801.04 769.902,1799.37 773.193,1797.31L933.088,1697.1C936.346,1695.06 943.97,1693.41 950.117,1693.41L1800.4,1694.07C1806.55,1694.07 1808.89,1695.73 1805.63,1697.77L1645.73,1797.98C1642.44,1800.04 1634.74,1801.7 1628.54,1801.7Z" style="fill:rgb(190,230,255);"/></g><g transform="matrix(0.716442,-1.79452e-17,-1.74375e-17,0.763813,630.233,390.194)"><g transform="matrix(3.48851,0,-1.83818,1.157,994.328,1704.89)"><path d="M0,8.592L-9.227,8.571C-10.125,8.569 -10.851,7.839 -10.849,6.942L-10.836,1.622C-10.834,0.724 -10.105,-0.002 -9.208,0L0.02,0.021C0.917,0.023 1.644,0.753 1.641,1.651L1.629,6.97C1.627,7.868 0.897,8.594 0,8.592" style="fill:rgb(64,103,177);fill-rule:nonzero;"/></g><g transform="matrix(3.48851,0,-1.83818,1.157,1051.01,1704.94)"><path d="M0,8.592L-9.227,8.571C-10.125,8.569 -10.851,7.839 -10.849,6.942L-10.836,1.622C-10.834,0.724 -10.104,-0.002 -9.207,0L0.02,0.021C0.918,0.023 1.644,0.753 1.642,1.651L1.629,6.97C1.627,7.868 0.898,8.594 0,8.592" style="fill:rgb(64,103,177);fill-rule:nonzero;"/></g><g transform="matrix(3.48851,0,-1.83818,1.157,1107.7,1704.98)"><path d="M0,8.592L-9.227,8.571C-10.125,8.569 -10.851,7.839 -10.849,6.942L-10.836,1.621C-10.834,0.724 -10.104,-0.002 -9.207,0L0.02,0.021C0.917,0.023 1.644,0.753 1.642,1.65L1.629,6.97C1.627,7.868 0.898,8.594 0,8.592" style="fill:rgb(64,103,177);fill-rule:nonzero;"/></g><g transform="matrix(3.48851,0,-1.83818,1.157,1164.39,1705.02)"><path d="M0,8.592L-9.227,8.571C-10.125,8.569 -10.851,7.839 -10.849,6.942L-10.836,1.622C-10.834,0.724 -10.105,-0.002 -9.207,0L0.02,0.021C0.917,0.023 1.644,0.753 1.642,1.651L1.629,6.97C1.627,7.868 0.897,8.594 0,8.592" style="fill:rgb(64,103,177);fill-rule:nonzero;"/></g><g transform="matrix(3.48851,0,-1.83818,1.157,1221.08,1705.07)"><path d="M0,8.592L-9.227,8.571C-10.125,8.569 -10.851,7.839 -10.849,6.942L-10.836,1.621C-10.834,0.724 -10.105,-0.002 -9.208,0L0.02,0.021C0.917,0.023 1.644,0.753 1.641,1.65L1.629,6.97C1.627,7.868 0.897,8.594 0,8.592" style="fill:rgb(64,103,177);fill-rule:nonzero;"/></g><g transform="matrix(3.48851,0,-1.83818,1.157,1277.76,1705.11)"><path d="M0,8.592L-9.227,8.571C-10.125,8.569 -10.851,7.839 -10.848,6.942L-10.836,1.622C-10.834,0.724 -10.104,-0.002 -9.207,0L0.02,0.021C0.918,0.023 1.644,0.753 1.642,1.651L1.629,6.97C1.627,7.868 0.898,8.594 0,8.592" style="fill:rgb(64,103,177);fill-rule:nonzero;"/></g><g transform="matrix(3.48851,0,-1.83818,1.157,1334.45,1705.16)"><path d="M0,8.592L-9.227,8.571C-10.125,8.569 -10.851,7.839 -10.849,6.942L-10.836,1.621C-10.834,0.724 -10.104,-0.002 -9.207,0L0.02,0.021C0.917,0.023 1.644,0.753 1.642,1.65L1.629,6.97C1.627,7.868 0.898,8.594 0,8.592" style="fill:rgb(64,103,177);fill-rule:nonzero;"/></g><g transform="matrix(3.48851,0,-1.83818,1.157,1391.14,1705.2)"><path d="M0,8.592L-9.227,8.571C-10.125,8.569 -10.851,7.839 -10.849,6.942L-10.836,1.621C-10.834,0.724 -10.105,-0.002 -9.207,0L0.02,0.021C0.918,0.023 1.644,0.753 1.642,1.65L1.629,6.97C1.627,7.868 0.897,8.594 0,8.592" style="fill:rgb(64,103,177);fill-rule:nonzero;"/></g><g transform="matrix(3.48851,0,-1.83818,1.157,1447.82,1705.24)"><path d="M0,8.592L-9.227,8.571C-10.125,8.569 -10.851,7.839 -10.849,6.942L-10.836,1.621C-10.834,0.724 -10.104,-0.002 -9.207,0L0.02,0.021C0.917,0.023 1.644,0.753 1.642,1.65L1.629,6.97C1.627,7.868 0.897,8.594 0,8.592" style="fill:rgb(64,103,177);fill-rule:nonzero;"/></g><g transform="matrix(3.48851,0,-1.83818,1.157,1504.51,1705.29)"><path d="M0,8.592L-9.228,8.571C-10.125,8.569 -10.851,7.839 -10.849,6.941L-10.836,1.621C-10.834,0.724 -10.105,-0.002 -9.207,0L0.02,0.021C0.917,0.023 1.644,0.753 1.642,1.65L1.629,6.97C1.627,7.868 0.897,8.594 0,8.592" style="fill:rgb(64,103,177);fill-rule:nonzero;"/></g><g transform="matrix(3.48851,0,-1.83818,1.157,1561.2,1705.33)"><path d="M0,8.592L-9.228,8.571C-10.125,8.569 -10.851,7.839 -10.849,6.942L-10.837,1.621C-10.834,0.724 -10.105,-0.002 -9.207,0L0.02,0.021C0.917,0.023 1.644,0.753 1.642,1.65L1.629,6.97C1.627,7.868 0.897,8.594 0,8.592" style="fill:rgb(64,103,177);fill-rule:nonzero;"/></g><g transform="matrix(3.48851,0,-1.83818,1.157,1617.89,1705.37)"><path d="M0,8.592L-9.228,8.571C-10.125,8.569 -10.851,7.839 -10.849,6.941L-10.837,1.621C-10.835,0.724 -10.105,-0.002 -9.207,0L0.02,0.021C0.917,0.023 1.644,0.753 1.642,1.65L1.629,6.97C1.627,7.868 0.897,8.594 0,8.592" style="fill:rgb(64,103,177);fill-rule:nonzero;"/></g><g transform="matrix(3.48851,0,-1.83818,1.157,1687.57,1705.42)"><path d="M0,8.592L-12.953,8.571C-13.851,8.569 -14.577,7.839 -14.574,6.942L-14.563,1.621C-14.561,0.724 -13.831,-0.002 -12.934,0L0.021,0.021C0.918,0.023 1.644,0.753 1.642,1.65L1.629,6.97C1.627,7.868 0.898,8.594 0,8.592" style="fill:rgb(64,103,177);fill-rule:nonzero;"/></g><g transform="matrix(3.48851,0,-1.83818,1.157,1757.55,1705.46)"><path d="M0,8.609L-13.037,8.57C-13.935,8.568 -14.661,7.839 -14.659,6.941L-14.646,1.621C-14.645,0.724 -13.915,-0.002 -13.018,0L0.02,0.038C0.917,0.041 1.644,0.77 1.641,1.668L1.629,6.987C1.627,7.885 0.897,8.611 0,8.609" style="fill:rgb(64,103,177);fill-rule:nonzero;"/></g><g transform="matrix(3.48851,0,-1.83818,1.157,883.731,1774.16)"><path d="M0,16.406L-9.227,16.385C-10.125,16.383 -10.851,15.653 -10.849,14.756L-10.818,1.622C-10.816,0.724 -10.086,-0.002 -9.189,0L0.038,0.021C0.936,0.023 1.662,0.753 1.66,1.65L1.629,14.785C1.627,15.682 0.898,16.408 0,16.406" style="fill:rgb(64,103,177);fill-rule:nonzero;"/></g><g transform="matrix(3.48851,0,-1.83818,1.157,940.418,1774.21)"><path d="M0,16.406L-9.227,16.385C-10.125,16.383 -10.851,15.653 -10.849,14.755L-10.818,1.621C-10.816,0.723 -10.087,-0.002 -9.189,0L0.038,0.021C0.936,0.023 1.662,0.753 1.66,1.65L1.629,14.784C1.627,15.681 0.898,16.408 0,16.406" style="fill:rgb(64,103,177);fill-rule:nonzero;"/></g><g transform="matrix(3.48851,0,-1.83818,1.157,997.106,1774.25)"><path d="M0,16.406L-9.227,16.385C-10.125,16.383 -10.851,15.653 -10.849,14.756L-10.818,1.622C-10.816,0.724 -10.087,-0.002 -9.189,0L0.038,0.021C0.936,0.023 1.662,0.753 1.66,1.65L1.629,14.784C1.627,15.682 0.898,16.408 0,16.406" style="fill:rgb(64,103,177);fill-rule:nonzero;"/></g><g transform="matrix(3.48851,0,-1.83818,1.157,1053.79,1774.29)"><path d="M0,16.406L-9.227,16.385C-10.125,16.383 -10.851,15.653 -10.849,14.755L-10.818,1.621C-10.816,0.723 -10.087,-0.002 -9.189,0L0.038,0.02C0.936,0.023 1.662,0.753 1.659,1.65L1.629,14.784C1.627,15.681 0.897,16.408 0,16.406" style="fill:rgb(64,103,177);fill-rule:nonzero;"/></g><g transform="matrix(3.48851,0,-1.83818,1.157,1280.75,1774.34)"><path d="M0,16.518L-58.035,16.384C-58.933,16.382 -59.659,15.653 -59.657,14.755L-59.626,1.622C-59.625,0.724 -58.895,-0.003 -57.998,-0.001L0.038,0.133C0.936,0.136 1.661,0.866 1.659,1.763L1.629,14.897C1.627,15.794 0.897,16.521 0,16.518" style="fill:rgb(64,103,177);fill-rule:nonzero;"/></g><g transform="matrix(3.48851,0,-1.83818,1.157,1337.23,1774.51)"><path d="M0,16.406L-9.228,16.385C-10.125,16.383 -10.851,15.653 -10.849,14.756L-10.818,1.622C-10.816,0.723 -10.087,-0.002 -9.189,0L0.038,0.021C0.936,0.023 1.661,0.753 1.659,1.65L1.629,14.784C1.627,15.682 0.897,16.408 0,16.406" style="fill:rgb(64,103,177);fill-rule:nonzero;"/></g><g transform="matrix(3.48851,0,-1.83818,1.157,1393.91,1774.56)"><path d="M0,16.404L-9.228,16.383C-10.125,16.381 -10.851,15.652 -10.849,14.754L-10.818,1.62C-10.816,0.722 -10.087,-0.003 -9.189,-0.001L0.038,0.019C0.936,0.022 1.661,0.752 1.659,1.649L1.629,14.783C1.627,15.68 0.897,16.407 0,16.404" style="fill:rgb(64,103,177);fill-rule:nonzero;"/></g><g transform="matrix(3.48851,0,-1.83818,1.157,1450.6,1774.6)"><path d="M0,16.406L-9.228,16.385C-10.125,16.383 -10.851,15.653 -10.849,14.756L-10.818,1.622C-10.816,0.723 -10.087,-0.002 -9.189,0L0.037,0.021C0.936,0.023 1.661,0.753 1.659,1.65L1.629,14.784C1.627,15.682 0.897,16.408 0,16.406" style="fill:rgb(64,103,177);fill-rule:nonzero;"/></g><g transform="matrix(3.48851,0,-1.83818,1.157,1561.52,1786.36)"><path d="M0,6.325L-10.474,6.301C-11.371,6.299 -12.097,5.569 -12.095,4.672L-12.088,1.622C-12.086,0.724 -11.356,-0.002 -10.459,0L0.015,0.024C0.912,0.026 1.639,0.756 1.636,1.653L1.629,4.703C1.627,5.601 0.897,6.327 0,6.325" style="fill:rgb(64,103,177);fill-rule:nonzero;"/></g><g transform="matrix(3.48851,0,-1.83818,1.157,1623.87,1786.41)"><path d="M0,6.324L-10.474,6.3C-11.371,6.298 -12.097,5.568 -12.095,4.671L-12.088,1.621C-12.086,0.723 -11.356,-0.002 -10.459,0L0.015,0.024C0.912,0.026 1.639,0.755 1.636,1.653L1.629,4.703C1.627,5.6 0.897,6.326 0,6.324" style="fill:rgb(64,103,177);fill-rule:nonzero;"/></g><g transform="matrix(3.48851,0,-1.83818,1.157,1499.17,1786.31)"><path d="M0,6.325L-10.473,6.301C-11.371,6.299 -12.097,5.569 -12.095,4.671L-12.088,1.622C-12.086,0.723 -11.356,-0.002 -10.459,0L0.015,0.024C0.912,0.026 1.639,0.756 1.637,1.653L1.629,4.703C1.627,5.6 0.897,6.327 0,6.325" style="fill:rgb(64,103,177);fill-rule:nonzero;"/></g><g transform="matrix(3.48851,0,-1.83818,1.157,1580.14,1774.7)"><path d="M0,6.323L-10.474,6.3C-11.371,6.298 -12.097,5.568 -12.095,4.67L-12.088,1.621C-12.086,0.722 -11.356,-0.003 -10.459,-0.001L0.015,0.023C0.912,0.025 1.638,0.755 1.636,1.652L1.629,4.702C1.627,5.599 0.897,6.326 0,6.323" style="fill:rgb(64,103,177);fill-rule:nonzero;"/></g><g transform="matrix(3.48851,0,-1.83818,1.157,972.073,1718.82)"><path d="M0,12.499L-9.227,12.478C-10.125,12.476 -10.851,11.746 -10.849,10.849L-10.827,1.622C-10.825,0.724 -10.096,-0.002 -9.198,0L0.029,0.021C0.927,0.023 1.653,0.753 1.651,1.65L1.629,10.878C1.627,11.775 0.898,12.501 0,12.499" style="fill:rgb(64,103,177);fill-rule:nonzero;"/></g><g transform="matrix(3.48851,0,-1.83818,1.157,1028.76,1718.86)"><path d="M0,12.499L-9.227,12.478C-10.125,12.476 -10.851,11.746 -10.849,10.849L-10.827,1.621C-10.825,0.724 -10.096,-0.002 -9.198,-0.001L0.029,0.021C0.927,0.023 1.652,0.752 1.65,1.65L1.629,10.877C1.627,11.774 0.898,12.501 0,12.499" style="fill:rgb(64,103,177);fill-rule:nonzero;"/></g><g transform="matrix(3.48851,0,-1.83818,1.157,1085.45,1718.91)"><path d="M0,12.499L-9.227,12.478C-10.125,12.476 -10.851,11.746 -10.849,10.849L-10.828,1.622C-10.825,0.724 -10.096,-0.002 -9.198,0L0.029,0.021C0.926,0.023 1.652,0.753 1.65,1.65L1.629,10.878C1.627,11.775 0.897,12.501 0,12.499" style="fill:rgb(64,103,177);fill-rule:nonzero;"/></g><g transform="matrix(3.48851,0,-1.83818,1.157,1142.13,1718.95)"><path d="M0,12.499L-9.227,12.478C-10.125,12.476 -10.851,11.746 -10.848,10.849L-10.827,1.621C-10.825,0.724 -10.096,-0.002 -9.198,-0.001L0.029,0.021C0.927,0.023 1.653,0.752 1.651,1.65L1.629,10.877C1.627,11.774 0.898,12.501 0,12.499" style="fill:rgb(64,103,177);fill-rule:nonzero;"/></g><g transform="matrix(3.48851,0,-1.83818,1.157,1198.82,1718.99)"><path d="M0,12.499L-9.227,12.478C-10.125,12.476 -10.851,11.746 -10.849,10.849L-10.827,1.622C-10.825,0.724 -10.096,-0.002 -9.198,0L0.029,0.021C0.927,0.023 1.653,0.753 1.651,1.65L1.629,10.878C1.627,11.775 0.898,12.501 0,12.499" style="fill:rgb(64,103,177);fill-rule:nonzero;"/></g><g transform="matrix(3.48851,0,-1.83818,1.157,1255.51,1719.04)"><path d="M0,12.499L-9.227,12.478C-10.125,12.476 -10.851,11.746 -10.849,10.849L-10.827,1.621C-10.825,0.724 -10.096,-0.002 -9.198,-0.001L0.029,0.021C0.927,0.023 1.653,0.752 1.65,1.65L1.629,10.877C1.627,11.774 0.898,12.501 0,12.499" style="fill:rgb(64,103,177);fill-rule:nonzero;"/></g><g transform="matrix(3.48851,0,-1.83818,1.157,1312.2,1719.08)"><path d="M0,12.499L-9.227,12.478C-10.125,12.476 -10.851,11.746 -10.849,10.849L-10.827,1.622C-10.825,0.724 -10.096,-0.002 -9.198,0L0.029,0.021C0.926,0.023 1.652,0.753 1.65,1.65L1.629,10.878C1.627,11.775 0.897,12.501 0,12.499" style="fill:rgb(64,103,177);fill-rule:nonzero;"/></g><g transform="matrix(3.48851,0,-1.83818,1.157,1368.88,1719.13)"><path d="M0,12.499L-9.227,12.478C-10.124,12.476 -10.85,11.746 -10.848,10.849L-10.827,1.621C-10.825,0.724 -10.096,-0.002 -9.198,-0.001L0.029,0.021C0.927,0.023 1.653,0.752 1.65,1.65L1.63,10.877C1.628,11.774 0.898,12.501 0,12.499" style="fill:rgb(64,103,177);fill-rule:nonzero;"/></g><g transform="matrix(3.48851,0,-1.83818,1.157,1425.57,1719.17)"><path d="M0,12.499L-9.227,12.478C-10.124,12.476 -10.851,11.746 -10.849,10.849L-10.827,1.622C-10.825,0.724 -10.096,-0.002 -9.198,0L0.029,0.021C0.927,0.023 1.652,0.753 1.65,1.65L1.629,10.878C1.627,11.775 0.897,12.501 0,12.499" style="fill:rgb(64,103,177);fill-rule:nonzero;"/></g><g transform="matrix(3.48851,0,-1.83818,1.157,1482.25,1719.21)"><path d="M0,12.499L-9.227,12.478C-10.124,12.476 -10.851,11.746 -10.849,10.848L-10.827,1.621C-10.825,0.724 -10.096,-0.002 -9.198,-0.001L0.029,0.021C0.927,0.023 1.652,0.752 1.65,1.65L1.629,10.877C1.627,11.774 0.897,12.501 0,12.499" style="fill:rgb(64,103,177);fill-rule:nonzero;"/></g><g transform="matrix(3.48851,0,-1.83818,1.157,1538.94,1719.26)"><path d="M0,12.499L-9.227,12.478C-10.125,12.476 -10.851,11.746 -10.849,10.849L-10.827,1.622C-10.825,0.724 -10.096,-0.002 -9.198,0L0.029,0.021C0.927,0.023 1.652,0.753 1.65,1.65L1.629,10.878C1.627,11.775 0.897,12.501 0,12.499" style="fill:rgb(64,103,177);fill-rule:nonzero;"/></g><g transform="matrix(3.48851,0,-1.83818,1.157,1595.63,1719.3)"><path d="M0,12.499L-9.227,12.478C-10.125,12.476 -10.851,11.746 -10.849,10.848L-10.827,1.621C-10.825,0.724 -10.096,-0.002 -9.198,-0.001L0.028,0.021C0.927,0.023 1.652,0.752 1.65,1.65L1.629,10.877C1.627,11.774 0.897,12.501 0,12.499" style="fill:rgb(64,103,177);fill-rule:nonzero;"/></g><g transform="matrix(3.48851,0,-1.83818,1.157,1665.32,1719.34)"><path d="M0,12.499L-12.954,12.478C-13.852,12.476 -14.577,11.746 -14.575,10.849L-14.554,1.622C-14.552,0.724 -13.822,-0.002 -12.925,0L0.028,0.021C0.926,0.023 1.652,0.753 1.65,1.65L1.629,10.878C1.627,11.775 0.897,12.501 0,12.499" style="fill:rgb(64,103,177);fill-rule:nonzero;"/></g><g transform="matrix(3.48851,0,-1.83818,1.157,1735.3,1719.39)"><path d="M0,12.516L-13.037,12.478C-13.935,12.476 -14.661,11.746 -14.659,10.848L-14.638,1.621C-14.636,0.724 -13.906,-0.002 -13.008,0L0.028,0.038C0.927,0.04 1.652,0.77 1.65,1.668L1.629,10.895C1.627,11.792 0.897,12.518 0,12.516" style="fill:rgb(64,103,177);fill-rule:nonzero;"/></g><g transform="matrix(3.48851,0,-1.83818,1.157,970.301,1737.27)"><path d="M0,12.536L-17.157,12.477C-18.055,12.475 -18.781,11.746 -18.779,10.849L-18.758,1.621C-18.755,0.723 -18.026,-0.002 -17.128,0L0.029,0.058C0.927,0.06 1.653,0.79 1.651,1.687L1.629,10.915C1.627,11.812 0.898,12.538 0,12.536" style="fill:rgb(64,103,177);fill-rule:nonzero;"/></g><g transform="matrix(3.48851,0,-1.83818,1.157,1056.01,1737.36)"><path d="M0,12.499L-17.156,12.478C-18.053,12.476 -18.779,11.746 -18.777,10.849L-18.756,1.621C-18.754,0.724 -18.024,-0.002 -17.127,0L0.029,0.021C0.927,0.023 1.653,0.753 1.65,1.65L1.629,10.877C1.627,11.775 0.898,12.501 0,12.499" style="fill:rgb(64,103,177);fill-rule:nonzero;"/></g><g transform="matrix(3.48851,0,-1.83818,1.157,1112.7,1737.4)"><path d="M0,12.499L-9.227,12.478C-10.125,12.476 -10.851,11.746 -10.849,10.849L-10.827,1.622C-10.825,0.725 -10.096,-0.002 -9.198,0L0.029,0.021C0.927,0.023 1.653,0.753 1.65,1.65L1.629,10.878C1.627,11.775 0.898,12.501 0,12.499" style="fill:rgb(64,103,177);fill-rule:nonzero;"/></g><g transform="matrix(3.48851,0,-1.83818,1.157,1169.38,1737.44)"><path d="M0,12.499L-9.227,12.478C-10.125,12.476 -10.851,11.746 -10.849,10.849L-10.827,1.621C-10.825,0.724 -10.096,-0.002 -9.198,0L0.029,0.021C0.926,0.023 1.652,0.753 1.65,1.65L1.629,10.877C1.627,11.775 0.897,12.501 0,12.499" style="fill:rgb(64,103,177);fill-rule:nonzero;"/></g><g transform="matrix(3.48851,0,-1.83818,1.157,1226.07,1737.49)"><path d="M0,12.499L-9.227,12.478C-10.125,12.476 -10.851,11.746 -10.849,10.849L-10.828,1.622C-10.825,0.725 -10.096,-0.002 -9.198,0L0.029,0.021C0.926,0.023 1.652,0.753 1.65,1.65L1.629,10.878C1.627,11.775 0.897,12.501 0,12.499" style="fill:rgb(64,103,177);fill-rule:nonzero;"/></g><g transform="matrix(3.48851,0,-1.83818,1.157,1282.76,1737.53)"><path d="M0,12.499L-9.227,12.478C-10.125,12.476 -10.851,11.746 -10.849,10.849L-10.828,1.621C-10.825,0.724 -10.096,-0.002 -9.198,0L0.029,0.021C0.926,0.023 1.652,0.753 1.65,1.65L1.629,10.877C1.627,11.775 0.897,12.501 0,12.499" style="fill:rgb(64,103,177);fill-rule:nonzero;"/></g><g transform="matrix(3.48851,0,-1.83818,1.157,1339.45,1737.57)"><path d="M0,12.499L-9.228,12.478C-10.125,12.476 -10.851,11.746 -10.849,10.849L-10.828,1.622C-10.826,0.725 -10.096,-0.002 -9.198,0L0.028,0.021C0.926,0.023 1.652,0.753 1.65,1.65L1.629,10.878C1.627,11.775 0.897,12.501 0,12.499" style="fill:rgb(64,103,177);fill-rule:nonzero;"/></g><g transform="matrix(3.48851,0,-1.83818,1.157,1396.13,1737.62)"><path d="M0,12.499L-9.228,12.478C-10.125,12.476 -10.852,11.746 -10.849,10.849L-10.828,1.621C-10.825,0.724 -10.097,-0.002 -9.198,0L0.028,0.021C0.926,0.023 1.652,0.753 1.65,1.65L1.629,10.877C1.627,11.774 0.897,12.501 0,12.499" style="fill:rgb(64,103,177);fill-rule:nonzero;"/></g><g transform="matrix(3.48851,0,-1.83818,1.157,1452.82,1737.66)"><path d="M0,12.499L-9.227,12.478C-10.124,12.476 -10.851,11.746 -10.849,10.849L-10.827,1.622C-10.825,0.725 -10.096,-0.002 -9.197,0L0.029,0.021C0.927,0.023 1.653,0.753 1.651,1.65L1.63,10.878C1.628,11.775 0.898,12.501 0,12.499" style="fill:rgb(64,103,177);fill-rule:nonzero;"/></g><g transform="matrix(3.48851,0,-1.83818,1.157,1509.51,1737.7)"><path d="M0,12.499L-9.227,12.478C-10.124,12.476 -10.851,11.746 -10.849,10.849L-10.827,1.621C-10.825,0.724 -10.096,-0.002 -9.198,0L0.029,0.021C0.927,0.023 1.653,0.753 1.65,1.65L1.63,10.877C1.627,11.774 0.898,12.501 0,12.499" style="fill:rgb(64,103,177);fill-rule:nonzero;"/></g><g transform="matrix(3.48851,0,-1.83818,1.157,1566.19,1737.75)"><path d="M0,12.499L-9.227,12.478C-10.124,12.476 -10.851,11.746 -10.849,10.849L-10.827,1.622C-10.825,0.724 -10.096,-0.002 -9.198,0L0.029,0.021C0.927,0.023 1.652,0.753 1.65,1.65L1.629,10.878C1.627,11.775 0.897,12.501 0,12.499" style="fill:rgb(64,103,177);fill-rule:nonzero;"/></g><g transform="matrix(3.48851,0,-1.83818,1.157,1621.71,1737.75)"><path d="M0,12.499L-9.228,12.478C-10.125,12.476 -10.851,11.746 -10.849,10.849L-10.827,1.622C-10.825,0.724 -10.097,-0.002 -9.198,0L0.028,0.021C0.926,0.023 1.652,0.753 1.65,1.65L1.629,10.878C1.627,11.775 0.897,12.501 0,12.499" style="fill:rgb(64,103,177);fill-rule:nonzero;"/></g><g transform="matrix(3.48851,0,-1.83818,1.157,1705.93,1737.79)"><path d="M0,12.554L-16.885,12.478C-17.783,12.476 -18.509,11.746 -18.507,10.849L-18.485,1.621C-18.483,0.724 -17.754,-0.002 -16.856,0L0.029,0.076C0.927,0.078 1.652,0.808 1.65,1.705L1.629,10.932C1.627,11.83 0.897,12.556 0,12.554" style="fill:rgb(64,103,177);fill-rule:nonzero;"/></g><g transform="matrix(3.48851,0,-1.83818,1.157,969.957,1755.72)"><path d="M0,12.537L-25.497,12.478C-26.394,12.476 -27.12,11.747 -27.118,10.85L-27.097,1.622C-27.095,0.724 -26.365,-0.002 -25.468,0.001L0.029,0.059C0.927,0.061 1.652,0.791 1.65,1.688L1.629,10.915C1.627,11.813 0.898,12.539 0,12.537" style="fill:rgb(64,103,177);fill-rule:nonzero;"/></g><g transform="matrix(3.48851,0,-1.83818,1.157,1026.58,1755.8)"><path d="M0,12.5L-9.227,12.479C-10.125,12.477 -10.851,11.747 -10.849,10.849L-10.827,1.622C-10.825,0.725 -10.096,-0.002 -9.198,0L0.029,0.021C0.926,0.024 1.652,0.753 1.65,1.651L1.629,10.878C1.627,11.775 0.897,12.502 0,12.5" style="fill:rgb(64,103,177);fill-rule:nonzero;"/></g><g transform="matrix(3.48851,0,-1.83818,1.157,1083.26,1755.85)"><path d="M0,12.499L-9.227,12.478C-10.125,12.476 -10.851,11.746 -10.849,10.849L-10.827,1.622C-10.825,0.724 -10.096,-0.002 -9.198,0L0.029,0.021C0.926,0.023 1.652,0.753 1.65,1.65L1.629,10.877C1.627,11.775 0.897,12.501 0,12.499" style="fill:rgb(64,103,177);fill-rule:nonzero;"/></g><g transform="matrix(3.48851,0,-1.83818,1.157,1139.95,1755.89)"><path d="M0,12.5L-9.227,12.479C-10.125,12.477 -10.851,11.747 -10.849,10.849L-10.828,1.622C-10.826,0.725 -10.096,-0.002 -9.198,0L0.029,0.021C0.926,0.023 1.652,0.753 1.65,1.651L1.629,10.878C1.627,11.775 0.897,12.502 0,12.5" style="fill:rgb(64,103,177);fill-rule:nonzero;"/></g><g transform="matrix(3.48851,0,-1.83818,1.157,1196.63,1755.93)"><path d="M0,12.499L-9.227,12.478C-10.125,12.476 -10.851,11.746 -10.849,10.849L-10.827,1.622C-10.825,0.724 -10.096,-0.002 -9.198,0L0.029,0.021C0.927,0.023 1.653,0.753 1.65,1.65L1.629,10.877C1.627,11.775 0.898,12.501 0,12.499" style="fill:rgb(64,103,177);fill-rule:nonzero;"/></g><g transform="matrix(3.48851,0,-1.83818,1.157,1253.32,1755.98)"><path d="M0,12.5L-9.227,12.479C-10.125,12.477 -10.851,11.747 -10.849,10.849L-10.827,1.622C-10.825,0.725 -10.096,-0.002 -9.198,0L0.029,0.021C0.927,0.023 1.653,0.753 1.65,1.651L1.629,10.878C1.627,11.775 0.897,12.502 0,12.5" style="fill:rgb(64,103,177);fill-rule:nonzero;"/></g><g transform="matrix(3.48851,0,-1.83818,1.157,1310.01,1756.02)"><path d="M0,12.499L-9.227,12.478C-10.125,12.476 -10.851,11.746 -10.849,10.849L-10.827,1.621C-10.825,0.724 -10.096,-0.002 -9.198,0L0.028,0.021C0.927,0.023 1.652,0.753 1.65,1.65L1.629,10.877C1.627,11.775 0.897,12.501 0,12.499" style="fill:rgb(64,103,177);fill-rule:nonzero;"/></g><g transform="matrix(3.48851,0,-1.83818,1.157,1366.7,1756.06)"><path d="M0,12.5L-9.228,12.479C-10.125,12.477 -10.851,11.747 -10.849,10.849L-10.827,1.622C-10.825,0.725 -10.096,-0.002 -9.198,0L0.028,0.021C0.927,0.023 1.652,0.753 1.65,1.651L1.629,10.878C1.627,11.775 0.897,12.502 0,12.5" style="fill:rgb(64,103,177);fill-rule:nonzero;"/></g><g transform="matrix(3.48851,0,-1.83818,1.157,1423.38,1756.11)"><path d="M0,12.499L-9.228,12.478C-10.125,12.476 -10.851,11.746 -10.849,10.849L-10.827,1.621C-10.825,0.724 -10.096,-0.002 -9.198,0L0.028,0.021C0.927,0.023 1.652,0.753 1.65,1.65L1.629,10.877C1.627,11.775 0.897,12.501 0,12.499" style="fill:rgb(64,103,177);fill-rule:nonzero;"/></g><g transform="matrix(3.48851,0,-1.83818,1.157,1480.07,1756.15)"><path d="M0,12.5L-9.228,12.479C-10.125,12.476 -10.851,11.747 -10.849,10.849L-10.828,1.622C-10.825,0.725 -10.096,-0.002 -9.198,0L0.028,0.021C0.926,0.023 1.652,0.753 1.65,1.651L1.629,10.878C1.627,11.775 0.897,12.502 0,12.5" style="fill:rgb(64,103,177);fill-rule:nonzero;"/></g><g transform="matrix(3.48851,0,-1.83818,1.157,1536.76,1756.19)"><path d="M0,12.499L-9.227,12.478C-10.124,12.476 -10.851,11.746 -10.848,10.849L-10.827,1.621C-10.825,0.724 -10.096,-0.002 -9.197,0L0.029,0.021C0.927,0.023 1.653,0.753 1.651,1.65L1.63,10.877C1.628,11.775 0.898,12.501 0,12.499" style="fill:rgb(64,103,177);fill-rule:nonzero;"/></g><g transform="matrix(3.48851,0,-1.83818,1.157,1676.49,1756.24)"><path d="M0,12.555L-33.032,12.479C-33.93,12.476 -34.656,11.747 -34.654,10.849L-34.633,1.622C-34.631,0.725 -33.901,-0.002 -33.004,0L0.029,0.077C0.927,0.079 1.653,0.809 1.65,1.706L1.63,10.933C1.628,11.83 0.898,12.557 0,12.555" style="fill:rgb(64,103,177);fill-rule:nonzero;"/></g></g></g></g><g transform="matrix(0.320745,0.0463385,-0.0288665,0.199808,191.857,565.52)"><g transform="matrix(1.24853,0,0,1.24853,-2044.97,1369.2)"><g transform="matrix(0.399853,-0.150071,0.334982,0.320416,412.466,513.347)"><path d="M4634.37,1195.2C4634.37,1177.14 4621.31,1162.47 4605.21,1162.47L2718.33,1162.47C2702.23,1162.47 2689.16,1177.14 2689.16,1195.2L2689.16,2462.15C2689.16,2480.21 2702.23,2494.88 2718.33,2494.88L4534.5,2497.59L4652.48,2412.78L4634.37,1195.2Z" style="fill-opacity:0.16;"/></g><g transform="matrix(0.399853,-0.150071,0.334982,0.320416,400.551,485.195)"><path d="M4634.37,1195.2C4634.37,1177.14 4621.31,1162.47 4605.21,1162.47L2718.33,1162.47C2702.23,1162.47 2689.16,1177.14 2689.16,1195.2L2689.16,2462.15C2689.16,2480.21 2702.23,2494.88 2718.33,2494.88L4605.21,2494.88C4621.31,2494.88 4634.37,2480.21 4634.37,2462.15L4634.37,1195.2Z" style="fill:rgb(5,131,124);"/></g><g transform="matrix(0.399853,-0.150071,0.334982,0.320416,403.994,476.352)"><path d="M4634.37,1195.2C4634.37,1177.14 4621.31,1162.47 4605.21,1162.47L2849.46,981.118C2833.37,981.118 2689.16,1177.14 2689.16,1195.2L2689.16,2462.15C2689.16,2480.21 2702.23,2494.88 2718.33,2494.88L4605.21,2494.88C4571.67,2468.73 4730.65,2286.89 4774.45,2291.9L4634.37,1195.2Z" style="fill:rgb(213,239,235);"/></g><g transform="matrix(1,0,0,1,5.15145,63.375)"><path d="M1877.62,359.041L1876.89,359.314C1870.45,361.729 1870.14,368.39 1876.19,374.178L2300.59,780.128C2306.64,785.916 2316.78,788.654 2323.22,786.239L3064.15,508.155C3062.49,501.592 3061.29,494.504 3061.29,494.504L2324.55,771.012C2318.12,773.428 2307.98,770.689 2301.93,764.901L1877.62,359.041Z" style="fill:rgb(177,225,218);"/></g><g transform="matrix(1,0,0,1,5.15145,31.8053)"><path d="M1877.62,359.041L1876.89,359.314C1870.45,361.729 1870.14,368.39 1876.19,374.178L2300.59,780.128C2306.64,785.916 2316.78,788.654 2323.22,786.239L3060.35,509.447C3059.7,501.734 3061.29,494.504 3061.29,494.504L2324.55,771.012C2318.12,773.428 2307.98,770.689 2301.93,764.901L1877.62,359.041Z" style="fill:rgb(177,225,218);"/></g><path d="M1886.86,468.629L1886.61,378.7L1873.96,363.018C1873.96,363.018 1852.49,380.765 1874.35,457.202L1886.86,468.629Z" style="fill:rgb(5,131,124);"/><g transform="matrix(0.399853,-0.150071,0.334982,0.320416,400.551,394.78)"><path d="M4634.37,1195.2C4634.37,1177.14 4621.31,1162.47 4605.21,1162.47L2718.33,1162.47C2702.23,1162.47 2689.16,1177.14 2689.16,1195.2L2689.16,2462.15C2689.16,2480.21 2702.23,2494.88 2718.33,2494.88L4605.21,2494.88C4621.31,2494.88 4634.37,2480.21 4634.37,2462.15L4634.37,1195.2Z" style="fill:rgb(63,160,146);"/></g><path d="M1877.62,359.041L1876.89,359.314C1870.45,361.729 1870.14,368.39 1876.19,374.178L2300.59,780.128C2306.64,785.916 2316.78,788.654 2323.22,786.239L3077.7,503.072C3084.13,500.657 3084.44,493.996 3078.39,488.208L3078.3,488.119L2324.55,771.012C2318.12,773.428 2307.98,770.689 2301.93,764.901L1877.62,359.041Z" style="fill:rgb(5,131,124);"/></g><g transform="matrix(0.949526,0,0,0.882143,17.8778,214.726)"><path d="M354.196,1821.92L1234.36,1503.67L1223.42,1494.26L354.196,1821.92Z" style="fill:rgb(5,131,124);"/></g><g transform="matrix(0.571561,0.558006,-3.48425,1.22956,6253.55,-1058.96)"><path d="M1791.72,1642.23L1745.81,1595.3L1676.07,1649.34L1131.77,1625.97L1019.52,1846.49L1047.22,1870.45L1852.06,1875.86L1791.72,1642.23Z" style="fill:rgb(53,136,124);"/></g></g><g transform="matrix(0.289861,0.0418766,-0.026087,0.180569,216.406,562.674)"><g transform="matrix(1.24853,0,0,1.24853,-2044.97,1369.2)"><g transform="matrix(0.399853,-0.150071,0.334982,0.320416,400.551,485.195)"><path d="M4634.37,1195.2C4634.37,1177.14 4621.31,1162.47 4605.21,1162.47L2718.33,1162.47C2702.23,1162.47 2689.16,1177.14 2689.16,1195.2L2689.16,2462.15C2689.16,2480.21 2702.23,2494.88 2718.33,2494.88L4605.21,2494.88C4621.31,2494.88 4634.37,2480.21 4634.37,2462.15L4634.37,1195.2Z" style="fill:rgb(5,131,124);"/></g><g transform="matrix(0.399853,-0.150071,0.334982,0.320416,403.994,476.352)"><path d="M4634.37,1195.2C4634.37,1177.14 4621.31,1162.47 4605.21,1162.47L2849.46,981.118C2833.37,981.118 2689.16,1177.14 2689.16,1195.2L2689.16,2462.15C2689.16,2480.21 2702.23,2494.88 2718.33,2494.88L4605.21,2494.88C4571.67,2468.73 4730.65,2286.89 4774.45,2291.9L4634.37,1195.2Z" style="fill:rgb(213,239,235);"/></g><g transform="matrix(1,0,0,1,5.15145,63.375)"><path d="M1877.62,359.041L1876.89,359.314C1870.45,361.729 1870.14,368.39 1876.19,374.178L2300.59,780.128C2306.64,785.916 2316.78,788.654 2323.22,786.239L3064.15,508.155C3062.49,501.592 3061.29,494.504 3061.29,494.504L2324.55,771.012C2318.12,773.428 2307.98,770.689 2301.93,764.901L1877.62,359.041Z" style="fill:rgb(177,225,218);"/></g><g transform="matrix(1,0,0,1,5.15145,31.8053)"><path d="M1877.62,359.041L1876.89,359.314C1870.45,361.729 1870.14,368.39 1876.19,374.178L2300.59,780.128C2306.64,785.916 2316.78,788.654 2323.22,786.239L3060.35,509.447C3059.7,501.734 3061.29,494.504 3061.29,494.504L2324.55,771.012C2318.12,773.428 2307.98,770.689 2301.93,764.901L1877.62,359.041Z" style="fill:rgb(177,225,218);"/></g><path d="M1886.86,468.629L1886.61,378.7L1873.96,363.018C1873.96,363.018 1852.49,380.765 1874.35,457.202L1886.86,468.629Z" style="fill:rgb(5,131,124);"/><g transform="matrix(0.399853,-0.150071,0.334982,0.320416,400.551,394.78)"><path d="M4634.37,1195.2C4634.37,1177.14 4621.31,1162.47 4605.21,1162.47L2718.33,1162.47C2702.23,1162.47 2689.16,1177.14 2689.16,1195.2L2689.16,2462.15C2689.16,2480.21 2702.23,2494.88 2718.33,2494.88L4605.21,2494.88C4621.31,2494.88 4634.37,2480.21 4634.37,2462.15L4634.37,1195.2Z" style="fill:rgb(68,174,158);"/></g><path d="M1877.62,359.041L1876.89,359.314C1870.45,361.729 1870.14,368.39 1876.19,374.178L2300.59,780.128C2306.64,785.916 2316.78,788.654 2323.22,786.239L3077.7,503.072C3084.13,500.657 3084.44,493.996 3078.39,488.208L3078.3,488.119L2324.55,771.012C2318.12,773.428 2307.98,770.689 2301.93,764.901L1877.62,359.041Z" style="fill:rgb(5,131,124);"/></g><path d="M354.196,1821.92L1234.36,1503.67L1223.42,1494.26L354.196,1821.92Z" style="fill:rgb(5,131,124);"/><g transform="matrix(0.571561,0.558006,-1.05144,0.371043,2297.87,336.959)"><rect x="1131.77" y="1625.97" width="668.136" height="249.418" style="fill:rgb(102,195,181);"/></g></g><g transform="matrix(0.320745,0.0463385,-0.0288665,0.199808,205.513,475.116)"><g transform="matrix(1.24853,0,0,1.24853,-2044.97,1369.2)"><g transform="matrix(0.399853,-0.150071,0.334982,0.320416,412.466,513.347)"><path d="M4634.37,1195.2C4634.37,1177.14 4621.31,1162.47 4605.21,1162.47L2718.33,1162.47C2702.23,1162.47 2689.16,1177.14 2689.16,1195.2L2689.16,2462.15C2689.16,2480.21 2702.23,2494.88 2718.33,2494.88L4534.5,2497.59L4652.48,2412.78L4634.37,1195.2Z" style="fill-opacity:0.16;"/></g><g transform="matrix(0.399853,-0.150071,0.334982,0.320416,400.551,485.195)"><path d="M4634.37,1195.2C4634.37,1177.14 4621.31,1162.47 4605.21,1162.47L2718.33,1162.47C2702.23,1162.47 2689.16,1177.14 2689.16,1195.2L2689.16,2462.15C2689.16,2480.21 2702.23,2494.88 2718.33,2494.88L4605.21,2494.88C4621.31,2494.88 4634.37,2480.21 4634.37,2462.15L4634.37,1195.2Z" style="fill:rgb(5,131,124);"/></g><g transform="matrix(0.399853,-0.150071,0.334982,0.320416,403.994,476.352)"><path d="M4634.37,1195.2C4634.37,1177.14 4621.31,1162.47 4605.21,1162.47L2849.46,981.118C2833.37,981.118 2689.16,1177.14 2689.16,1195.2L2689.16,2462.15C2689.16,2480.21 2702.23,2494.88 2718.33,2494.88L4605.21,2494.88C4571.67,2468.73 4730.65,2286.89 4774.45,2291.9L4634.37,1195.2Z" style="fill:rgb(213,239,235);"/></g><g transform="matrix(1,0,0,1,5.15145,63.375)"><path d="M1877.62,359.041L1876.89,359.314C1870.45,361.729 1870.14,368.39 1876.19,374.178L2300.59,780.128C2306.64,785.916 2316.78,788.654 2323.22,786.239L3064.15,508.155C3062.49,501.592 3061.29,494.504 3061.29,494.504L2324.55,771.012C2318.12,773.428 2307.98,770.689 2301.93,764.901L1877.62,359.041Z" style="fill:rgb(177,225,218);"/></g><g transform="matrix(1,0,0,1,5.15145,31.8053)"><path d="M1877.62,359.041L1876.89,359.314C1870.45,361.729 1870.14,368.39 1876.19,374.178L2300.59,780.128C2306.64,785.916 2316.78,788.654 2323.22,786.239L3060.35,509.447C3059.7,501.734 3061.29,494.504 3061.29,494.504L2324.55,771.012C2318.12,773.428 2307.98,770.689 2301.93,764.901L1877.62,359.041Z" style="fill:rgb(177,225,218);"/></g><path d="M1886.86,468.629L1886.61,378.7L1873.96,363.018C1873.96,363.018 1852.49,380.765 1874.35,457.202L1886.86,468.629Z" style="fill:rgb(5,131,124);"/><g transform="matrix(0.399853,-0.150071,0.334982,0.320416,400.551,394.78)"><path d="M4634.37,1195.2C4634.37,1177.14 4621.31,1162.47 4605.21,1162.47L2718.33,1162.47C2702.23,1162.47 2689.16,1177.14 2689.16,1195.2L2689.16,2462.15C2689.16,2480.21 2702.23,2494.88 2718.33,2494.88L4605.21,2494.88C4621.31,2494.88 4634.37,2480.21 4634.37,2462.15L4634.37,1195.2Z" style="fill:rgb(63,160,146);"/></g><path d="M1877.62,359.041L1876.89,359.314C1870.45,361.729 1870.14,368.39 1876.19,374.178L2300.59,780.128C2306.64,785.916 2316.78,788.654 2323.22,786.239L3077.7,503.072C3084.13,500.657 3084.44,493.996 3078.39,488.208L3078.3,488.119L2324.55,771.012C2318.12,773.428 2307.98,770.689 2301.93,764.901L1877.62,359.041Z" style="fill:rgb(5,131,124);"/></g><g transform="matrix(0.949526,0,0,0.882143,17.8778,214.726)"><path d="M354.196,1821.92L1234.36,1503.67L1223.42,1494.26L354.196,1821.92Z" style="fill:rgb(5,131,124);"/></g><g transform="matrix(0.571561,0.558006,-3.48425,1.22956,6253.55,-1058.96)"><path d="M1789,1679.31L1719.97,1637.99L1676.07,1649.34L1131.77,1625.97L1019.52,1846.49L1047.22,1870.45L1852.06,1875.86L1789,1679.31Z" style="fill:rgb(53,136,124);"/></g></g><g transform="matrix(0.289861,0.0418766,-0.026087,0.180569,230.062,472.269)"><g transform="matrix(1.24853,0,0,1.24853,-2239.98,1426.79)"><g transform="matrix(0.399853,-0.150071,0.334982,0.320416,400.551,485.195)"><path d="M4634.37,1195.2C4634.37,1177.14 4621.31,1162.47 4605.21,1162.47L2718.33,1162.47C2702.23,1162.47 2689.16,1177.14 2689.16,1195.2L2689.16,2462.15C2689.16,2480.21 2702.23,2494.88 2718.33,2494.88L4605.21,2494.88C4621.31,2494.88 4634.37,2480.21 4634.37,2462.15L4634.37,1195.2Z" style="fill:rgb(5,131,124);"/></g><g transform="matrix(0.399853,-0.150071,0.334982,0.320416,403.994,476.352)"><path d="M4634.37,1195.2C4634.37,1177.14 4621.31,1162.47 4605.21,1162.47L2849.46,981.118C2833.37,981.118 2689.16,1177.14 2689.16,1195.2L2689.16,2462.15C2689.16,2480.21 2702.23,2494.88 2718.33,2494.88L4605.21,2494.88C4571.67,2468.73 4730.65,2286.89 4774.45,2291.9L4634.37,1195.2Z" style="fill:rgb(213,239,235);"/></g><g transform="matrix(1,0,0,1,5.15145,63.375)"><path d="M1877.62,359.041L1876.89,359.314C1870.45,361.729 1870.14,368.39 1876.19,374.178L2300.59,780.128C2306.64,785.916 2316.78,788.654 2323.22,786.239L3064.15,508.155C3062.49,501.592 3061.29,494.504 3061.29,494.504L2324.55,771.012C2318.12,773.428 2307.98,770.689 2301.93,764.901L1877.62,359.041Z" style="fill:rgb(177,225,218);"/></g><g transform="matrix(1,0,0,1,5.15145,31.8053)"><path d="M1877.62,359.041L1876.89,359.314C1870.45,361.729 1870.14,368.39 1876.19,374.178L2300.59,780.128C2306.64,785.916 2316.78,788.654 2323.22,786.239L3060.35,509.447C3059.7,501.734 3061.29,494.504 3061.29,494.504L2324.55,771.012C2318.12,773.428 2307.98,770.689 2301.93,764.901L1877.62,359.041Z" style="fill:rgb(177,225,218);"/></g><g transform="matrix(0.399853,-0.150071,0.334982,0.320416,400.551,394.78)"><path d="M4634.37,1195.2C4634.37,1177.14 4621.31,1162.47 4605.21,1162.47L2718.33,1162.47C2702.23,1162.47 2689.16,1177.14 2689.16,1195.2L2689.16,2462.15C2689.16,2480.21 2702.23,2494.88 2718.33,2494.88L4605.21,2494.88C4621.31,2494.88 4634.37,2480.21 4634.37,2462.15L4634.37,1195.2Z" style="fill:rgb(68,174,158);"/></g><path d="M1877.62,359.041L1876.89,359.314C1870.45,361.729 1870.14,368.39 1876.19,374.178L2300.59,780.128C2306.64,785.916 2316.78,788.654 2323.22,786.239L3077.7,503.072C3084.13,500.657 3084.44,493.996 3078.39,488.208L3078.3,488.119L2324.55,771.012C2318.12,773.428 2307.98,770.689 2301.93,764.901L1877.62,359.041Z" style="fill:rgb(5,131,124);"/></g><g transform="matrix(1,0,0,1,-153.203,55.1019)"><path d="M354.196,1821.92L1234.36,1503.67L1223.42,1494.26L354.196,1821.92Z" style="fill:rgb(5,131,124);"/></g><g transform="matrix(0.571561,0.558006,-1.05144,0.371043,2102.87,394.541)"><rect x="1131.77" y="1625.97" width="668.136" height="249.418" style="fill:rgb(102,195,181);"/></g></g></g></g></g></g></g><defs><linearGradient id="_Linear2" x1="0" y1="0" x2="1" y2="0" gradientUnits="userSpaceOnUse" gradientTransform="matrix(-206.913,-463.148,463.148,-206.913,3675.63,897.987)"><stop offset="0" style="stop-color:black;stop-opacity:0"/><stop offset="1" style="stop-color:black;stop-opacity:1"/></linearGradient><linearGradient id="_Linear4" x1="0" y1="0" x2="1" y2="0" gradientUnits="userSpaceOnUse" gradientTransform="matrix(501.628,-693.544,625.018,422.924,2479.57,1061.67)"><stop offset="0" style="stop-color:black;stop-opacity:0"/><stop offset="0.47" style="stop-color:black;stop-opacity:0.28"/><stop offset="1" style="stop-color:black;stop-opacity:1"/></linearGradient><linearGradient id="_Linear6" x1="0" y1="0" x2="1" y2="0" gradientUnits="userSpaceOnUse" gradientTransform="matrix(-208.136,-670.98,-715.345,195.228,1654.61,1891.34)"><stop offset="0" style="stop-color:black;stop-opacity:0"/><stop offset="1" style="stop-color:black;stop-opacity:1"/></linearGradient></defs></svg>